%TF.GenerationSoftware,KiCad,Pcbnew,(6.0.11)*%
%TF.CreationDate,2023-07-10T01:00:54-07:00*%
%TF.ProjectId,cga-ypbpr-right,6367612d-7970-4627-9072-2d7269676874,rev?*%
%TF.SameCoordinates,PX2990618PY4bd2668*%
%TF.FileFunction,Legend,Bot*%
%TF.FilePolarity,Positive*%
%FSLAX46Y46*%
G04 Gerber Fmt 4.6, Leading zero omitted, Abs format (unit mm)*
G04 Created by KiCad (PCBNEW (6.0.11)) date 2023-07-10 01:00:54*
%MOMM*%
%LPD*%
G01*
G04 APERTURE LIST*
%ADD10C,0.250000*%
%ADD11C,0.120000*%
G04 APERTURE END LIST*
D10*
X41089857Y25826429D02*
X41089857Y27326429D01*
X40518428Y27326429D01*
X40375571Y27255000D01*
X40304142Y27183572D01*
X40232714Y27040715D01*
X40232714Y26826429D01*
X40304142Y26683572D01*
X40375571Y26612143D01*
X40518428Y26540715D01*
X41089857Y26540715D01*
X39589857Y25826429D02*
X39589857Y27326429D01*
X39232714Y27326429D01*
X39018428Y27255000D01*
X38875571Y27112143D01*
X38804142Y26969286D01*
X38732714Y26683572D01*
X38732714Y26469286D01*
X38804142Y26183572D01*
X38875571Y26040715D01*
X39018428Y25897858D01*
X39232714Y25826429D01*
X39589857Y25826429D01*
X38161285Y27183572D02*
X38089857Y27255000D01*
X37947000Y27326429D01*
X37589857Y27326429D01*
X37447000Y27255000D01*
X37375571Y27183572D01*
X37304142Y27040715D01*
X37304142Y26897858D01*
X37375571Y26683572D01*
X38232714Y25826429D01*
X37304142Y25826429D01*
X36375571Y27326429D02*
X36232714Y27326429D01*
X36089857Y27255000D01*
X36018428Y27183572D01*
X35947000Y27040715D01*
X35875571Y26755000D01*
X35875571Y26397858D01*
X35947000Y26112143D01*
X36018428Y25969286D01*
X36089857Y25897858D01*
X36232714Y25826429D01*
X36375571Y25826429D01*
X36518428Y25897858D01*
X36589857Y25969286D01*
X36661285Y26112143D01*
X36732714Y26397858D01*
X36732714Y26755000D01*
X36661285Y27040715D01*
X36589857Y27183572D01*
X36518428Y27255000D01*
X36375571Y27326429D01*
X35375571Y27326429D02*
X34447000Y27326429D01*
X34947000Y26755000D01*
X34732714Y26755000D01*
X34589857Y26683572D01*
X34518428Y26612143D01*
X34447000Y26469286D01*
X34447000Y26112143D01*
X34518428Y25969286D01*
X34589857Y25897858D01*
X34732714Y25826429D01*
X35161285Y25826429D01*
X35304142Y25897858D01*
X35375571Y25969286D01*
X31804142Y25826429D02*
X32304142Y26540715D01*
X32661285Y25826429D02*
X32661285Y27326429D01*
X32089857Y27326429D01*
X31947000Y27255000D01*
X31875571Y27183572D01*
X31804142Y27040715D01*
X31804142Y26826429D01*
X31875571Y26683572D01*
X31947000Y26612143D01*
X32089857Y26540715D01*
X32661285Y26540715D01*
X31161285Y25826429D02*
X31161285Y26826429D01*
X31161285Y27326429D02*
X31232714Y27255000D01*
X31161285Y27183572D01*
X31089857Y27255000D01*
X31161285Y27326429D01*
X31161285Y27183572D01*
X29804142Y26826429D02*
X29804142Y25612143D01*
X29875571Y25469286D01*
X29947000Y25397858D01*
X30089857Y25326429D01*
X30304142Y25326429D01*
X30447000Y25397858D01*
X29804142Y25897858D02*
X29947000Y25826429D01*
X30232714Y25826429D01*
X30375571Y25897858D01*
X30447000Y25969286D01*
X30518428Y26112143D01*
X30518428Y26540715D01*
X30447000Y26683572D01*
X30375571Y26755000D01*
X30232714Y26826429D01*
X29947000Y26826429D01*
X29804142Y26755000D01*
X29089857Y25826429D02*
X29089857Y27326429D01*
X28447000Y25826429D02*
X28447000Y26612143D01*
X28518428Y26755000D01*
X28661285Y26826429D01*
X28875571Y26826429D01*
X29018428Y26755000D01*
X29089857Y26683572D01*
X27947000Y26826429D02*
X27375571Y26826429D01*
X27732714Y27326429D02*
X27732714Y26040715D01*
X27661285Y25897858D01*
X27518428Y25826429D01*
X27375571Y25826429D01*
X25732714Y25826429D02*
X25732714Y27326429D01*
X25161285Y27326429D01*
X25018428Y27255000D01*
X24947000Y27183572D01*
X24875571Y27040715D01*
X24875571Y26826429D01*
X24947000Y26683572D01*
X25018428Y26612143D01*
X25161285Y26540715D01*
X25732714Y26540715D01*
X23589857Y25826429D02*
X23589857Y26612143D01*
X23661285Y26755000D01*
X23804142Y26826429D01*
X24089857Y26826429D01*
X24232714Y26755000D01*
X23589857Y25897858D02*
X23732714Y25826429D01*
X24089857Y25826429D01*
X24232714Y25897858D01*
X24304142Y26040715D01*
X24304142Y26183572D01*
X24232714Y26326429D01*
X24089857Y26397858D01*
X23732714Y26397858D01*
X23589857Y26469286D01*
X22875571Y26826429D02*
X22875571Y25826429D01*
X22875571Y26683572D02*
X22804142Y26755000D01*
X22661285Y26826429D01*
X22447000Y26826429D01*
X22304142Y26755000D01*
X22232714Y26612143D01*
X22232714Y25826429D01*
X20947000Y25897858D02*
X21089857Y25826429D01*
X21375571Y25826429D01*
X21518428Y25897858D01*
X21589857Y26040715D01*
X21589857Y26612143D01*
X21518428Y26755000D01*
X21375571Y26826429D01*
X21089857Y26826429D01*
X20947000Y26755000D01*
X20875571Y26612143D01*
X20875571Y26469286D01*
X21589857Y26326429D01*
X20018428Y25826429D02*
X20161285Y25897858D01*
X20232714Y26040715D01*
X20232714Y27326429D01*
X18447000Y26826429D02*
X18089857Y25826429D01*
X17732714Y26826429D01*
X16375571Y25826429D02*
X17232714Y25826429D01*
X16804142Y25826429D02*
X16804142Y27326429D01*
X16947000Y27112143D01*
X17089857Y26969286D01*
X17232714Y26897858D01*
X15732714Y25969286D02*
X15661285Y25897858D01*
X15732714Y25826429D01*
X15804142Y25897858D01*
X15732714Y25969286D01*
X15732714Y25826429D01*
X14732714Y27326429D02*
X14589857Y27326429D01*
X14447000Y27255000D01*
X14375571Y27183572D01*
X14304142Y27040715D01*
X14232714Y26755000D01*
X14232714Y26397858D01*
X14304142Y26112143D01*
X14375571Y25969286D01*
X14447000Y25897858D01*
X14589857Y25826429D01*
X14732714Y25826429D01*
X14875571Y25897858D01*
X14947000Y25969286D01*
X15018428Y26112143D01*
X15089857Y26397858D01*
X15089857Y26755000D01*
X15018428Y27040715D01*
X14947000Y27183572D01*
X14875571Y27255000D01*
X14732714Y27326429D01*
X2345571Y27326429D02*
X2345571Y26255000D01*
X2417000Y26040715D01*
X2559857Y25897858D01*
X2774142Y25826429D01*
X2917000Y25826429D01*
X917000Y25826429D02*
X1631285Y25826429D01*
X1631285Y27326429D01*
X-440143Y25969286D02*
X-368715Y25897858D01*
X-154429Y25826429D01*
X-11572Y25826429D01*
X202714Y25897858D01*
X345571Y26040715D01*
X417000Y26183572D01*
X488428Y26469286D01*
X488428Y26683572D01*
X417000Y26969286D01*
X345571Y27112143D01*
X202714Y27255000D01*
X-11572Y27326429D01*
X-154429Y27326429D01*
X-368715Y27255000D01*
X-440143Y27183572D01*
X-1511572Y27326429D02*
X-1511572Y26255000D01*
X-1440143Y26040715D01*
X-1297286Y25897858D01*
X-1083000Y25826429D01*
X-940143Y25826429D01*
X-2940143Y25826429D02*
X-2225858Y25826429D01*
X-2225858Y27326429D01*
X-4297286Y25969286D02*
X-4225858Y25897858D01*
X-4011572Y25826429D01*
X-3868715Y25826429D01*
X-3654429Y25897858D01*
X-3511572Y26040715D01*
X-3440143Y26183572D01*
X-3368715Y26469286D01*
X-3368715Y26683572D01*
X-3440143Y26969286D01*
X-3511572Y27112143D01*
X-3654429Y27255000D01*
X-3868715Y27326429D01*
X-4011572Y27326429D01*
X-4225858Y27255000D01*
X-4297286Y27183572D01*
X-5368715Y27326429D02*
X-5368715Y26255000D01*
X-5297286Y26040715D01*
X-5154429Y25897858D01*
X-4940143Y25826429D01*
X-4797286Y25826429D01*
X-6797286Y25826429D02*
X-6083000Y25826429D01*
X-6083000Y27326429D01*
X-8154429Y25969286D02*
X-8083000Y25897858D01*
X-7868715Y25826429D01*
X-7725858Y25826429D01*
X-7511572Y25897858D01*
X-7368715Y26040715D01*
X-7297286Y26183572D01*
X-7225858Y26469286D01*
X-7225858Y26683572D01*
X-7297286Y26969286D01*
X-7368715Y27112143D01*
X-7511572Y27255000D01*
X-7725858Y27326429D01*
X-7868715Y27326429D01*
X-8083000Y27255000D01*
X-8154429Y27183572D01*
X-9225858Y27326429D02*
X-9225858Y26255000D01*
X-9154429Y26040715D01*
X-9011572Y25897858D01*
X-8797286Y25826429D01*
X-8654429Y25826429D01*
X-10654429Y25826429D02*
X-9940143Y25826429D01*
X-9940143Y27326429D01*
X-12011572Y25969286D02*
X-11940143Y25897858D01*
X-11725858Y25826429D01*
X-11583000Y25826429D01*
X-11368715Y25897858D01*
X-11225858Y26040715D01*
X-11154429Y26183572D01*
X-11083000Y26469286D01*
X-11083000Y26683572D01*
X-11154429Y26969286D01*
X-11225858Y27112143D01*
X-11368715Y27255000D01*
X-11583000Y27326429D01*
X-11725858Y27326429D01*
X-11940143Y27255000D01*
X-12011572Y27183572D01*
D11*
%TO.C,TP1*%
X11467000Y40555000D02*
X13367000Y40555000D01*
X11467000Y42455000D02*
X11467000Y40555000D01*
X13367000Y42455000D02*
X11467000Y42455000D01*
X13367000Y40555000D02*
X13367000Y42455000D01*
%TD*%
M02*
