%TF.GenerationSoftware,KiCad,Pcbnew,(6.0.11)*%
%TF.CreationDate,2023-07-09T23:55:29-07:00*%
%TF.ProjectId,cga-ypbpr,6367612d-7970-4627-9072-2e6b69636164,rev?*%
%TF.SameCoordinates,PX2990618PY4bd2668*%
%TF.FileFunction,Profile,NP*%
%FSLAX46Y46*%
G04 Gerber Fmt 4.6, Leading zero omitted, Abs format (unit mm)*
G04 Created by KiCad (PCBNEW (6.0.11)) date 2023-07-09 23:55:29*
%MOMM*%
%LPD*%
G01*
G04 APERTURE LIST*
%TA.AperFunction,Profile*%
%ADD10C,0.050000*%
%TD*%
G04 APERTURE END LIST*
D10*
X0Y0D02*
G75*
G03*
X6630000Y0I3315000J0D01*
G01*
X6630000Y-50000000D02*
G75*
G03*
X0Y-50000000I-3315000J0D01*
G01*
X-17183000Y-53305000D02*
X-1000000Y-53305000D01*
X-18183000Y2305000D02*
X-18183000Y-52305000D01*
X38477000Y3305000D02*
X7630000Y3305000D01*
X7630000Y-53305000D02*
X38477000Y-53305000D01*
X-1000000Y3305000D02*
X-17183000Y3305000D01*
X6630000Y-50000000D02*
X6630000Y-52305000D01*
X6630000Y2305000D02*
X6630000Y0D01*
X0Y0D02*
X0Y2305000D01*
X0Y-52305000D02*
X0Y-50000000D01*
X31817000Y-38855000D02*
X31817000Y-40855000D01*
X31817000Y-255000D02*
X31817000Y1745000D01*
X40077000Y-39555000D02*
X40077000Y445000D01*
X39477000Y1045000D02*
G75*
G03*
X39777000Y745000I300000J0D01*
G01*
X39477000Y2305000D02*
X39477000Y1045000D01*
X40077000Y445000D02*
G75*
G03*
X39777000Y745000I-300000J0D01*
G01*
X39777000Y-39855000D02*
G75*
G03*
X39477000Y-40155000I0J-300000D01*
G01*
X39477000Y-52305000D02*
X39477000Y-40155000D01*
X34217000Y1745000D02*
X34217000Y-255000D01*
X-1000000Y-53305000D02*
G75*
G03*
X0Y-52305000I0J1000000D01*
G01*
X7630000Y3305000D02*
G75*
G03*
X6630000Y2305000I0J-1000000D01*
G01*
X34217000Y-38855000D02*
X31817000Y-38855000D01*
X0Y2305000D02*
G75*
G03*
X-1000000Y3305000I-1000000J0D01*
G01*
X34217000Y-255000D02*
X31817000Y-255000D01*
X39477000Y2305000D02*
G75*
G03*
X38477000Y3305000I-1000000J0D01*
G01*
X31817000Y-40855000D02*
X34217000Y-40855000D01*
X-18183000Y-52305000D02*
G75*
G03*
X-17183000Y-53305000I1000000J0D01*
G01*
X-17183000Y3305000D02*
G75*
G03*
X-18183000Y2305000I0J-1000000D01*
G01*
X6630000Y-52305000D02*
G75*
G03*
X7630000Y-53305000I1000000J0D01*
G01*
X39777000Y-39855000D02*
G75*
G03*
X40077000Y-39555000I0J300000D01*
G01*
X34217000Y-40855000D02*
X34217000Y-38855000D01*
X38477000Y-53305000D02*
G75*
G03*
X39477000Y-52305000I0J1000000D01*
G01*
X31817000Y1745000D02*
X34217000Y1745000D01*
M02*
