%TF.GenerationSoftware,KiCad,Pcbnew,(6.0.11)*%
%TF.CreationDate,2023-07-09T23:55:29-07:00*%
%TF.ProjectId,cga-ypbpr,6367612d-7970-4627-9072-2e6b69636164,rev?*%
%TF.SameCoordinates,PX2990618PY4bd2668*%
%TF.FileFunction,Copper,L1,Top*%
%TF.FilePolarity,Positive*%
%FSLAX46Y46*%
G04 Gerber Fmt 4.6, Leading zero omitted, Abs format (unit mm)*
G04 Created by KiCad (PCBNEW (6.0.11)) date 2023-07-09 23:55:29*
%MOMM*%
%LPD*%
G01*
G04 APERTURE LIST*
G04 Aperture macros list*
%AMRoundRect*
0 Rectangle with rounded corners*
0 $1 Rounding radius*
0 $2 $3 $4 $5 $6 $7 $8 $9 X,Y pos of 4 corners*
0 Add a 4 corners polygon primitive as box body*
4,1,4,$2,$3,$4,$5,$6,$7,$8,$9,$2,$3,0*
0 Add four circle primitives for the rounded corners*
1,1,$1+$1,$2,$3*
1,1,$1+$1,$4,$5*
1,1,$1+$1,$6,$7*
1,1,$1+$1,$8,$9*
0 Add four rect primitives between the rounded corners*
20,1,$1+$1,$2,$3,$4,$5,0*
20,1,$1+$1,$4,$5,$6,$7,0*
20,1,$1+$1,$6,$7,$8,$9,0*
20,1,$1+$1,$8,$9,$2,$3,0*%
G04 Aperture macros list end*
%TA.AperFunction,ComponentPad*%
%ADD10C,1.600000*%
%TD*%
%TA.AperFunction,ComponentPad*%
%ADD11O,1.600000X1.600000*%
%TD*%
%TA.AperFunction,ComponentPad*%
%ADD12O,3.500000X2.250000*%
%TD*%
%TA.AperFunction,ComponentPad*%
%ADD13O,2.250000X3.500000*%
%TD*%
%TA.AperFunction,ComponentPad*%
%ADD14O,3.500000X2.200000*%
%TD*%
%TA.AperFunction,ComponentPad*%
%ADD15RoundRect,0.375000X0.875000X-0.375000X0.875000X0.375000X-0.875000X0.375000X-0.875000X-0.375000X0*%
%TD*%
%TA.AperFunction,ComponentPad*%
%ADD16O,2.500000X1.500000*%
%TD*%
%TA.AperFunction,ComponentPad*%
%ADD17C,4.000000*%
%TD*%
%TA.AperFunction,ComponentPad*%
%ADD18RoundRect,0.400000X-0.400000X0.400000X-0.400000X-0.400000X0.400000X-0.400000X0.400000X0.400000X0*%
%TD*%
%TA.AperFunction,ComponentPad*%
%ADD19C,1.800000*%
%TD*%
%TA.AperFunction,ComponentPad*%
%ADD20RoundRect,0.450000X-0.450000X-0.450000X0.450000X-0.450000X0.450000X0.450000X-0.450000X0.450000X0*%
%TD*%
%TA.AperFunction,ComponentPad*%
%ADD21RoundRect,0.450000X0.450000X-0.450000X0.450000X0.450000X-0.450000X0.450000X-0.450000X-0.450000X0*%
%TD*%
%TA.AperFunction,ComponentPad*%
%ADD22C,1.300000*%
%TD*%
%TA.AperFunction,ComponentPad*%
%ADD23C,2.000000*%
%TD*%
%TA.AperFunction,ComponentPad*%
%ADD24O,2.000000X2.000000*%
%TD*%
%TA.AperFunction,ComponentPad*%
%ADD25C,2.340000*%
%TD*%
%TA.AperFunction,ComponentPad*%
%ADD26O,2.000000X4.000000*%
%TD*%
%TA.AperFunction,ComponentPad*%
%ADD27O,4.000000X2.000000*%
%TD*%
%TA.AperFunction,ComponentPad*%
%ADD28RoundRect,0.400000X-0.800000X-0.400000X0.800000X-0.400000X0.800000X0.400000X-0.800000X0.400000X0*%
%TD*%
%TA.AperFunction,ComponentPad*%
%ADD29O,2.400000X1.600000*%
%TD*%
%TA.AperFunction,Conductor*%
%ADD30C,0.254000*%
%TD*%
%TA.AperFunction,Conductor*%
%ADD31C,0.635000*%
%TD*%
G04 APERTURE END LIST*
D10*
%TO.P,R10,1*%
%TO.N,/Pb2*%
X12932000Y-32890000D03*
D11*
%TO.P,R10,2*%
%TO.N,/Pb*%
X20552000Y-32890000D03*
%TD*%
D10*
%TO.P,R5,1*%
%TO.N,/Y3*%
X12932000Y-20190000D03*
D11*
%TO.P,R5,2*%
%TO.N,/Y*%
X20552000Y-20190000D03*
%TD*%
D10*
%TO.P,R7,1*%
%TO.N,/Y1*%
X12932000Y-25270000D03*
D11*
%TO.P,R7,2*%
%TO.N,/Y*%
X20552000Y-25270000D03*
%TD*%
D10*
%TO.P,R8,1*%
%TO.N,/Y0*%
X12932000Y-27810000D03*
D11*
%TO.P,R8,2*%
%TO.N,/Y*%
X20552000Y-27810000D03*
%TD*%
D10*
%TO.P,R11,1*%
%TO.N,/Pb1*%
X12932000Y-35430000D03*
D11*
%TO.P,R11,2*%
%TO.N,/Pb*%
X20552000Y-35430000D03*
%TD*%
D10*
%TO.P,R6,1*%
%TO.N,/Y2*%
X12932000Y-22730000D03*
D11*
%TO.P,R6,2*%
%TO.N,/Y*%
X20552000Y-22730000D03*
%TD*%
D10*
%TO.P,R9,1*%
%TO.N,GND*%
X12932000Y-30350000D03*
D11*
%TO.P,R9,2*%
%TO.N,/Y*%
X20552000Y-30350000D03*
%TD*%
D10*
%TO.P,C5,1*%
%TO.N,/Y*%
X27537000Y-34555000D03*
%TO.P,C5,2*%
%TO.N,GND*%
X27537000Y-32055000D03*
%TD*%
%TO.P,C2,1*%
%TO.N,+5V*%
X9122000Y-7490000D03*
%TO.P,C2,2*%
%TO.N,GND*%
X6622000Y-7490000D03*
%TD*%
%TO.P,R2,1*%
%TO.N,/Pr1*%
X12932000Y-12570000D03*
D11*
%TO.P,R2,2*%
%TO.N,/Pr*%
X20552000Y-12570000D03*
%TD*%
D10*
%TO.P,R3,1*%
%TO.N,/Pr0*%
X12932000Y-15110000D03*
D11*
%TO.P,R3,2*%
%TO.N,/Pr*%
X20552000Y-15110000D03*
%TD*%
D10*
%TO.P,R4,1*%
%TO.N,GND*%
X12932000Y-17650000D03*
D11*
%TO.P,R4,2*%
%TO.N,/Pr*%
X20552000Y-17650000D03*
%TD*%
D10*
%TO.P,R14,1*%
%TO.N,/VPol*%
X5312000Y-13840000D03*
D11*
%TO.P,R14,2*%
%TO.N,/VS*%
X5312000Y-21460000D03*
%TD*%
D12*
%TO.P,J4,1,In*%
%TO.N,/Pb*%
X31366000Y-19555000D03*
D13*
%TO.P,J4,2,Ext*%
%TO.N,GND*%
X35866000Y-19555000D03*
%TD*%
D10*
%TO.P,C6,1*%
%TO.N,/Pb*%
X27537000Y-19555000D03*
%TO.P,C6,2*%
%TO.N,GND*%
X27537000Y-17055000D03*
%TD*%
D14*
%TO.P,SW2,*%
%TO.N,*%
X37570000Y-50325000D03*
X37570000Y-42125000D03*
D15*
%TO.P,SW2,1,A*%
%TO.N,GND*%
X37570000Y-48225000D03*
D16*
%TO.P,SW2,2,B*%
%TO.N,/Mode*%
X37570000Y-46225000D03*
%TO.P,SW2,3,C*%
%TO.N,+5V*%
X37570000Y-44225000D03*
%TD*%
D17*
%TO.P,J1,0,PAD*%
%TO.N,GND*%
X-11221000Y-37691000D03*
X-11221000Y-12691000D03*
D18*
%TO.P,J1,1,1*%
X-9801000Y-30731000D03*
D10*
%TO.P,J1,2,2*%
%TO.N,/R0*%
X-9801000Y-27961000D03*
%TO.P,J1,3,3*%
%TO.N,/R*%
X-9801000Y-25191000D03*
%TO.P,J1,4,4*%
%TO.N,/G*%
X-9801000Y-22421000D03*
%TO.P,J1,5,5*%
%TO.N,/B*%
X-9801000Y-19651000D03*
%TO.P,J1,6,6*%
%TO.N,/I*%
X-12641000Y-29346000D03*
%TO.P,J1,7,7*%
%TO.N,/M*%
X-12641000Y-26576000D03*
%TO.P,J1,8,8*%
%TO.N,/HS*%
X-12641000Y-23806000D03*
%TO.P,J1,9,9*%
%TO.N,/VS*%
X-12641000Y-21036000D03*
%TD*%
D12*
%TO.P,J5,1,In*%
%TO.N,/Pr*%
X31366000Y-4555000D03*
D13*
%TO.P,J5,2,Ext*%
%TO.N,GND*%
X35866000Y-4555000D03*
%TD*%
D10*
%TO.P,R1,1*%
%TO.N,/Pr2*%
X12932000Y-10030000D03*
D11*
%TO.P,R1,2*%
%TO.N,/Pr*%
X20552000Y-10030000D03*
%TD*%
D10*
%TO.P,R17,1*%
%TO.N,/Bln*%
X5312000Y-26540000D03*
D11*
%TO.P,R17,2*%
%TO.N,+5V*%
X5312000Y-34160000D03*
%TD*%
D19*
%TO.P,SW1,*%
%TO.N,*%
X-13738000Y-49400000D03*
D20*
%TO.P,SW1,1,A*%
%TO.N,/RAW*%
X-8658000Y-49400000D03*
D19*
%TO.P,SW1,2,B*%
%TO.N,/RAW'*%
X-6118000Y-49400000D03*
%TO.P,SW1,3,C*%
%TO.N,unconnected-(SW1-Pad3)*%
X-3578000Y-49400000D03*
%TD*%
D21*
%TO.P,D1,1,K*%
%TO.N,GND*%
X-14373000Y-44955000D03*
D19*
%TO.P,D1,2,A*%
%TO.N,/LED*%
X-14373000Y-42415000D03*
%TD*%
D10*
%TO.P,C8,1*%
%TO.N,/~{HS}*%
X13821000Y765000D03*
%TO.P,C8,2*%
%TO.N,GND*%
X13821000Y-1735000D03*
%TD*%
D22*
%TO.P,Q2,1,S*%
%TO.N,GND*%
X9757000Y765000D03*
%TO.P,Q2,2,G*%
%TO.N,/~{HS}*%
X11027000Y-505000D03*
%TO.P,Q2,3,D*%
%TO.N,/Bln*%
X9757000Y-1775000D03*
%TD*%
D23*
%TO.P,FB1,1*%
%TO.N,/RAW'*%
X232000Y-43685000D03*
D24*
%TO.P,FB1,2*%
%TO.N,/RAW''*%
X12932000Y-43685000D03*
%TD*%
D18*
%TO.P,C4,1*%
%TO.N,+5V*%
X19917000Y-47495000D03*
D10*
%TO.P,C4,2*%
%TO.N,GND*%
X19917000Y-49995000D03*
%TD*%
%TO.P,C1,1*%
%TO.N,/RAW''*%
X12932000Y-46225000D03*
%TO.P,C1,2*%
%TO.N,GND*%
X15432000Y-46225000D03*
%TD*%
D25*
%TO.P,RV1,1,1*%
%TO.N,/~{HS}*%
X23052000Y979000D03*
%TO.P,RV1,2,2*%
%TO.N,/Trim*%
X20552000Y-1521000D03*
%TO.P,RV1,3,3*%
X18052000Y979000D03*
%TD*%
D10*
%TO.P,R16,1*%
%TO.N,/Trim*%
X20552000Y-6220000D03*
D11*
%TO.P,R16,2*%
%TO.N,+5V*%
X12932000Y-6220000D03*
%TD*%
D10*
%TO.P,R15,1*%
%TO.N,/LED*%
X-11198000Y-43685000D03*
D11*
%TO.P,R15,2*%
%TO.N,+5V*%
X-3578000Y-43685000D03*
%TD*%
D10*
%TO.P,C3,1*%
%TO.N,/VPol*%
X4002000Y-7490000D03*
%TO.P,C3,2*%
%TO.N,GND*%
X1502000Y-7490000D03*
%TD*%
D26*
%TO.P,J2,1*%
%TO.N,/RAW*%
X-7134000Y-3045000D03*
%TO.P,J2,2*%
%TO.N,GND*%
X-13134000Y-3045000D03*
D27*
%TO.P,J2,3*%
X-10134000Y-7745000D03*
%TD*%
D10*
%TO.P,R12,1*%
%TO.N,/Pb0*%
X12932000Y-37970000D03*
D11*
%TO.P,R12,2*%
%TO.N,/Pb*%
X20552000Y-37970000D03*
%TD*%
D10*
%TO.P,R13,1*%
%TO.N,GND*%
X12932000Y-40510000D03*
D11*
%TO.P,R13,2*%
%TO.N,/Pb*%
X20552000Y-40510000D03*
%TD*%
D22*
%TO.P,Q1,1,S*%
%TO.N,GND*%
X-2943000Y-1775000D03*
%TO.P,Q1,2,G*%
%TO.N,/HS*%
X-4213000Y-505000D03*
%TO.P,Q1,3,D*%
%TO.N,/~{HS}*%
X-2943000Y765000D03*
%TD*%
%TO.P,U1,1,GND*%
%TO.N,GND*%
X11662000Y-50035000D03*
%TO.P,U1,2,VI*%
%TO.N,/RAW''*%
X12932000Y-48765000D03*
%TO.P,U1,3,VO*%
%TO.N,+5V*%
X14202000Y-50035000D03*
%TD*%
D12*
%TO.P,J3,1,In*%
%TO.N,/Y*%
X31366000Y-34555000D03*
D13*
%TO.P,J3,2,Ext*%
%TO.N,GND*%
X35866000Y-34555000D03*
%TD*%
D10*
%TO.P,C7,1*%
%TO.N,/Pr*%
X27537000Y-4555000D03*
%TO.P,C7,2*%
%TO.N,GND*%
X27537000Y-2055000D03*
%TD*%
D28*
%TO.P,U2,1,CLK*%
%TO.N,/Bln*%
X1502000Y-10030000D03*
D29*
%TO.P,U2,2,I0*%
%TO.N,/HS*%
X1502000Y-12570000D03*
%TO.P,U2,3,I1*%
%TO.N,/VPol*%
X1502000Y-15110000D03*
%TO.P,U2,4,I2*%
%TO.N,/VS*%
X1502000Y-17650000D03*
%TO.P,U2,5,I3*%
%TO.N,/B*%
X1502000Y-20190000D03*
%TO.P,U2,6,I4*%
%TO.N,/G*%
X1502000Y-22730000D03*
%TO.P,U2,7,I5*%
%TO.N,/R*%
X1502000Y-25270000D03*
%TO.P,U2,8,I6*%
%TO.N,/M*%
X1502000Y-27810000D03*
%TO.P,U2,9,I7*%
%TO.N,/I*%
X1502000Y-30350000D03*
%TO.P,U2,10,I8*%
%TO.N,/R0*%
X1502000Y-32890000D03*
%TO.P,U2,11,I9*%
%TO.N,/Mode*%
X1502000Y-35430000D03*
%TO.P,U2,12,GND*%
%TO.N,GND*%
X1502000Y-37970000D03*
%TO.P,U2,13,~{OE}*%
X9122000Y-37970000D03*
%TO.P,U2,14,O9*%
%TO.N,/Pb0*%
X9122000Y-35430000D03*
%TO.P,U2,15,O8*%
%TO.N,/Pb1*%
X9122000Y-32890000D03*
%TO.P,U2,16,O7*%
%TO.N,/Pb2*%
X9122000Y-30350000D03*
%TO.P,U2,17,O6*%
%TO.N,/Y0*%
X9122000Y-27810000D03*
%TO.P,U2,18,O5*%
%TO.N,/Y1*%
X9122000Y-25270000D03*
%TO.P,U2,19,O4*%
%TO.N,/Y2*%
X9122000Y-22730000D03*
%TO.P,U2,20,O3*%
%TO.N,/Y3*%
X9122000Y-20190000D03*
%TO.P,U2,21,O2*%
%TO.N,/Pr0*%
X9122000Y-17650000D03*
%TO.P,U2,22,O1*%
%TO.N,/Pr1*%
X9122000Y-15110000D03*
%TO.P,U2,23,O0*%
%TO.N,/Pr2*%
X9122000Y-12570000D03*
%TO.P,U2,24,VCC*%
%TO.N,+5V*%
X9122000Y-10030000D03*
%TD*%
D30*
%TO.N,+5V*%
X-6753000Y-40510000D02*
X-6753000Y-37335000D01*
D31*
X12932000Y-6220000D02*
X10392000Y-6220000D01*
X14837000Y-42415000D02*
X14837000Y-42034000D01*
D30*
X5312000Y-34160000D02*
X5312000Y-36700000D01*
X-3578000Y-43685000D02*
X-6753000Y-40510000D01*
D31*
X14837000Y-8125000D02*
X12932000Y-6220000D01*
D30*
X-6753000Y-37335000D02*
X-3578000Y-34160000D01*
D31*
X9122000Y-7490000D02*
X9122000Y-10030000D01*
X14202000Y-50035000D02*
X17377000Y-50035000D01*
D30*
X5312000Y-36700000D02*
X10646000Y-42034000D01*
X23187000Y-44225000D02*
X37570000Y-44225000D01*
X-3578000Y-34160000D02*
X5312000Y-34160000D01*
D31*
X14837000Y-42034000D02*
X14837000Y-8125000D01*
D30*
X10646000Y-42034000D02*
X14837000Y-42034000D01*
D31*
X17377000Y-50035000D02*
X19917000Y-47495000D01*
X19917000Y-47495000D02*
X14837000Y-42415000D01*
X10392000Y-6220000D02*
X9122000Y-7490000D01*
D30*
X19917000Y-47495000D02*
X23187000Y-44225000D01*
%TO.N,/Y*%
X20552000Y-25270000D02*
X20552000Y-27810000D01*
X24757000Y-34555000D02*
X27537000Y-34555000D01*
X24757000Y-34555000D02*
X20552000Y-30350000D01*
X20552000Y-22730000D02*
X20552000Y-25270000D01*
X27537000Y-34555000D02*
X31366000Y-34555000D01*
X20552000Y-27810000D02*
X20552000Y-30350000D01*
X20552000Y-20190000D02*
X20552000Y-22730000D01*
%TO.N,/Pr*%
X26027000Y-4555000D02*
X20552000Y-10030000D01*
X20552000Y-10030000D02*
X20552000Y-12570000D01*
X33017000Y-4555000D02*
X26027000Y-4555000D01*
X20552000Y-15110000D02*
X20552000Y-17650000D01*
X20552000Y-12570000D02*
X20552000Y-15110000D01*
%TO.N,/Pb*%
X21187000Y-18920000D02*
X21822000Y-19555000D01*
X18647000Y-20190000D02*
X19917000Y-18920000D01*
X21822000Y-19555000D02*
X27537000Y-19555000D01*
X20552000Y-37970000D02*
X20552000Y-40510000D01*
X20552000Y-32890000D02*
X20552000Y-35430000D01*
X19917000Y-18920000D02*
X21187000Y-18920000D01*
X20552000Y-32890000D02*
X18647000Y-30985000D01*
X31366000Y-19555000D02*
X27537000Y-19555000D01*
X18647000Y-30985000D02*
X18647000Y-20190000D01*
X20552000Y-35430000D02*
X20552000Y-37970000D01*
D31*
%TO.N,/RAW*%
X-9166000Y-3045000D02*
X-7134000Y-3045000D01*
X-8658000Y-49400000D02*
X-10563000Y-47495000D01*
X-16278000Y-10157000D02*
X-9166000Y-3045000D01*
X-14373000Y-47495000D02*
X-16278000Y-45590000D01*
X-16278000Y-45590000D02*
X-16278000Y-10157000D01*
X-10563000Y-47495000D02*
X-14373000Y-47495000D01*
D30*
%TO.N,/VS*%
X-12641000Y-20387815D02*
X-9903185Y-17650000D01*
X1502000Y-17650000D02*
X5312000Y-21460000D01*
X-9903185Y-17650000D02*
X1502000Y-17650000D01*
X-12641000Y-21036000D02*
X-12641000Y-20387815D01*
%TO.N,/HS*%
X-13992000Y-22455000D02*
X-13992000Y-20317000D01*
X-4213000Y-5839000D02*
X-4213000Y-505000D01*
X-9039000Y-15364000D02*
X-1292000Y-15364000D01*
X-276000Y-11300000D02*
X-276000Y-9776000D01*
X-12641000Y-23806000D02*
X-13992000Y-22455000D01*
X994000Y-12570000D02*
X-276000Y-11300000D01*
X-1292000Y-15364000D02*
X1502000Y-12570000D01*
X1502000Y-12570000D02*
X994000Y-12570000D01*
X-13992000Y-20317000D02*
X-9039000Y-15364000D01*
X-276000Y-9776000D02*
X-4213000Y-5839000D01*
%TO.N,/R0*%
X3407000Y-29715000D02*
X2772000Y-29080000D01*
X-887000Y-27961000D02*
X-9801000Y-27961000D01*
X232000Y-29080000D02*
X-887000Y-27961000D01*
X1502000Y-32890000D02*
X3407000Y-30985000D01*
X2772000Y-29080000D02*
X232000Y-29080000D01*
X3407000Y-30985000D02*
X3407000Y-29715000D01*
%TO.N,/Y3*%
X12932000Y-20190000D02*
X9122000Y-20190000D01*
%TO.N,/Y1*%
X12932000Y-25270000D02*
X9122000Y-25270000D01*
%TO.N,/Pr2*%
X10392000Y-12570000D02*
X12932000Y-10030000D01*
X9122000Y-12570000D02*
X10392000Y-12570000D01*
%TO.N,/Pr0*%
X9122000Y-17650000D02*
X10392000Y-17650000D01*
X10392000Y-17650000D02*
X12932000Y-15110000D01*
%TO.N,/Pb1*%
X10392000Y-32890000D02*
X12932000Y-35430000D01*
X9122000Y-32890000D02*
X10392000Y-32890000D01*
%TO.N,/Y2*%
X12932000Y-22730000D02*
X9122000Y-22730000D01*
%TO.N,/Y0*%
X12932000Y-27810000D02*
X9122000Y-27810000D01*
%TO.N,/Pr1*%
X9122000Y-15110000D02*
X10392000Y-15110000D01*
X10392000Y-15110000D02*
X12932000Y-12570000D01*
%TO.N,/Pb2*%
X9122000Y-30350000D02*
X10392000Y-30350000D01*
X10392000Y-30350000D02*
X12932000Y-32890000D01*
%TO.N,/Pb0*%
X10392000Y-35430000D02*
X12932000Y-37970000D01*
X9122000Y-35430000D02*
X10392000Y-35430000D01*
%TO.N,/VPol*%
X5312000Y-13840000D02*
X5312000Y-11300000D01*
X5312000Y-11300000D02*
X4042000Y-10030000D01*
X4042000Y-7530000D02*
X4002000Y-7490000D01*
X4042000Y-10030000D02*
X4042000Y-7530000D01*
X4042000Y-15110000D02*
X5312000Y-13840000D01*
X1502000Y-15110000D02*
X4042000Y-15110000D01*
D31*
%TO.N,/RAW'*%
X-6118000Y-49400000D02*
X232000Y-43050000D01*
D30*
%TO.N,/R*%
X1502000Y-25270000D02*
X-9722000Y-25270000D01*
X-9722000Y-25270000D02*
X-9801000Y-25191000D01*
%TO.N,/G*%
X1502000Y-22730000D02*
X1375000Y-22603000D01*
X1375000Y-22603000D02*
X-9619000Y-22603000D01*
X-9619000Y-22603000D02*
X-9801000Y-22421000D01*
%TO.N,/B*%
X1248000Y-19936000D02*
X-9516000Y-19936000D01*
X1502000Y-20190000D02*
X1248000Y-19936000D01*
X-9516000Y-19936000D02*
X-9801000Y-19651000D01*
%TO.N,/I*%
X-12641000Y-29346000D02*
X-1407000Y-29346000D01*
X-1407000Y-29346000D02*
X-403000Y-30350000D01*
X-403000Y-30350000D02*
X1502000Y-30350000D01*
%TO.N,/M*%
X867000Y-27810000D02*
X1502000Y-27810000D01*
X-12641000Y-26576000D02*
X-367000Y-26576000D01*
X-367000Y-26576000D02*
X867000Y-27810000D01*
%TO.N,/Mode*%
X4042000Y-44955000D02*
X4042000Y-37970000D01*
X20552000Y-51940000D02*
X11027000Y-51940000D01*
X4042000Y-37970000D02*
X1502000Y-35430000D01*
X11027000Y-51940000D02*
X4042000Y-44955000D01*
X26267000Y-46225000D02*
X20552000Y-51940000D01*
X37570000Y-46225000D02*
X26267000Y-46225000D01*
D31*
%TO.N,/RAW''*%
X12932000Y-43685000D02*
X12932000Y-46225000D01*
X12932000Y-46225000D02*
X12932000Y-48765000D01*
D30*
%TO.N,/LED*%
X-14373000Y-42415000D02*
X-12468000Y-42415000D01*
X-12468000Y-42415000D02*
X-11198000Y-43685000D01*
%TO.N,/~{HS}*%
X23052000Y725000D02*
X20980000Y2797000D01*
X15853000Y2797000D02*
X13821000Y765000D01*
X1692500Y-3870500D02*
X-2943000Y765000D01*
X13821000Y765000D02*
X12551000Y-505000D01*
X4994500Y-3870500D02*
X1692500Y-3870500D01*
X12551000Y-505000D02*
X11027000Y-505000D01*
X11027000Y-505000D02*
X8360000Y-505000D01*
X20980000Y2797000D02*
X15853000Y2797000D01*
X8360000Y-505000D02*
X4994500Y-3870500D01*
%TO.N,/Bln*%
X3534000Y-6220000D02*
X5312000Y-6220000D01*
X5312000Y-6220000D02*
X5312000Y-9141000D01*
X5312000Y-6220000D02*
X9757000Y-1775000D01*
X2772000Y-8760000D02*
X2772000Y-6982000D01*
X6963000Y-24889000D02*
X5312000Y-26540000D01*
X1502000Y-10030000D02*
X2772000Y-8760000D01*
X2772000Y-6982000D02*
X3534000Y-6220000D01*
X5312000Y-9141000D02*
X6963000Y-10792000D01*
X6963000Y-10792000D02*
X6963000Y-24889000D01*
%TO.N,/Trim*%
X20552000Y-6220000D02*
X20552000Y-1521000D01*
X20552000Y-1521000D02*
X18052000Y979000D01*
%TD*%
M02*
