%TF.GenerationSoftware,KiCad,Pcbnew,(6.0.11)*%
%TF.CreationDate,2023-07-09T23:55:29-07:00*%
%TF.ProjectId,cga-ypbpr,6367612d-7970-4627-9072-2e6b69636164,rev?*%
%TF.SameCoordinates,PX2990618PY4bd2668*%
%TF.FileFunction,Soldermask,Top*%
%TF.FilePolarity,Negative*%
%FSLAX46Y46*%
G04 Gerber Fmt 4.6, Leading zero omitted, Abs format (unit mm)*
G04 Created by KiCad (PCBNEW (6.0.11)) date 2023-07-09 23:55:29*
%MOMM*%
%LPD*%
G01*
G04 APERTURE LIST*
G04 Aperture macros list*
%AMRoundRect*
0 Rectangle with rounded corners*
0 $1 Rounding radius*
0 $2 $3 $4 $5 $6 $7 $8 $9 X,Y pos of 4 corners*
0 Add a 4 corners polygon primitive as box body*
4,1,4,$2,$3,$4,$5,$6,$7,$8,$9,$2,$3,0*
0 Add four circle primitives for the rounded corners*
1,1,$1+$1,$2,$3*
1,1,$1+$1,$4,$5*
1,1,$1+$1,$6,$7*
1,1,$1+$1,$8,$9*
0 Add four rect primitives between the rounded corners*
20,1,$1+$1,$2,$3,$4,$5,0*
20,1,$1+$1,$4,$5,$6,$7,0*
20,1,$1+$1,$6,$7,$8,$9,0*
20,1,$1+$1,$8,$9,$2,$3,0*%
G04 Aperture macros list end*
%ADD10C,3.200000*%
%ADD11C,1.600000*%
%ADD12O,1.600000X1.600000*%
%ADD13O,3.500000X2.250000*%
%ADD14O,2.250000X3.500000*%
%ADD15O,3.500000X2.200000*%
%ADD16RoundRect,0.375000X0.875000X-0.375000X0.875000X0.375000X-0.875000X0.375000X-0.875000X-0.375000X0*%
%ADD17O,2.500000X1.500000*%
%ADD18C,4.000000*%
%ADD19RoundRect,0.400000X-0.400000X0.400000X-0.400000X-0.400000X0.400000X-0.400000X0.400000X0.400000X0*%
%ADD20C,1.800000*%
%ADD21RoundRect,0.450000X-0.450000X-0.450000X0.450000X-0.450000X0.450000X0.450000X-0.450000X0.450000X0*%
%ADD22RoundRect,0.450000X0.450000X-0.450000X0.450000X0.450000X-0.450000X0.450000X-0.450000X-0.450000X0*%
%ADD23C,1.300000*%
%ADD24C,2.000000*%
%ADD25O,2.000000X2.000000*%
%ADD26C,2.340000*%
%ADD27O,2.000000X4.000000*%
%ADD28O,4.000000X2.000000*%
%ADD29RoundRect,0.400000X-0.800000X-0.400000X0.800000X-0.400000X0.800000X0.400000X-0.800000X0.400000X0*%
%ADD30O,2.400000X1.600000*%
G04 APERTURE END LIST*
D10*
%TO.C,MK2*%
X-3353000Y-11000000D03*
%TD*%
%TO.C,MK4*%
X24647000Y-11000000D03*
%TD*%
%TO.C,MK3*%
X24647000Y-39000000D03*
%TD*%
%TO.C,MK1*%
X-3353000Y-39000000D03*
%TD*%
D11*
%TO.C,R10*%
X12932000Y-32890000D03*
D12*
X20552000Y-32890000D03*
%TD*%
D11*
%TO.C,R5*%
X12932000Y-20190000D03*
D12*
X20552000Y-20190000D03*
%TD*%
D11*
%TO.C,R7*%
X12932000Y-25270000D03*
D12*
X20552000Y-25270000D03*
%TD*%
D11*
%TO.C,R8*%
X12932000Y-27810000D03*
D12*
X20552000Y-27810000D03*
%TD*%
D11*
%TO.C,R11*%
X12932000Y-35430000D03*
D12*
X20552000Y-35430000D03*
%TD*%
D11*
%TO.C,R6*%
X12932000Y-22730000D03*
D12*
X20552000Y-22730000D03*
%TD*%
D11*
%TO.C,R9*%
X12932000Y-30350000D03*
D12*
X20552000Y-30350000D03*
%TD*%
D11*
%TO.C,C5*%
X27537000Y-34555000D03*
X27537000Y-32055000D03*
%TD*%
%TO.C,C2*%
X9122000Y-7490000D03*
X6622000Y-7490000D03*
%TD*%
%TO.C,R2*%
X12932000Y-12570000D03*
D12*
X20552000Y-12570000D03*
%TD*%
D11*
%TO.C,R3*%
X12932000Y-15110000D03*
D12*
X20552000Y-15110000D03*
%TD*%
D11*
%TO.C,R4*%
X12932000Y-17650000D03*
D12*
X20552000Y-17650000D03*
%TD*%
D11*
%TO.C,R14*%
X5312000Y-13840000D03*
D12*
X5312000Y-21460000D03*
%TD*%
D13*
%TO.C,J4*%
X31366000Y-19555000D03*
D14*
X35866000Y-19555000D03*
%TD*%
D11*
%TO.C,C6*%
X27537000Y-19555000D03*
X27537000Y-17055000D03*
%TD*%
D15*
%TO.C,SW2*%
X37570000Y-50325000D03*
X37570000Y-42125000D03*
D16*
X37570000Y-48225000D03*
D17*
X37570000Y-46225000D03*
X37570000Y-44225000D03*
%TD*%
D18*
%TO.C,J1*%
X-11221000Y-37691000D03*
X-11221000Y-12691000D03*
D19*
X-9801000Y-30731000D03*
D11*
X-9801000Y-27961000D03*
X-9801000Y-25191000D03*
X-9801000Y-22421000D03*
X-9801000Y-19651000D03*
X-12641000Y-29346000D03*
X-12641000Y-26576000D03*
X-12641000Y-23806000D03*
X-12641000Y-21036000D03*
%TD*%
D13*
%TO.C,J5*%
X31366000Y-4555000D03*
D14*
X35866000Y-4555000D03*
%TD*%
D11*
%TO.C,R1*%
X12932000Y-10030000D03*
D12*
X20552000Y-10030000D03*
%TD*%
D11*
%TO.C,R17*%
X5312000Y-26540000D03*
D12*
X5312000Y-34160000D03*
%TD*%
D20*
%TO.C,SW1*%
X-13738000Y-49400000D03*
D21*
X-8658000Y-49400000D03*
D20*
X-6118000Y-49400000D03*
X-3578000Y-49400000D03*
%TD*%
D22*
%TO.C,D1*%
X-14373000Y-44955000D03*
D20*
X-14373000Y-42415000D03*
%TD*%
D11*
%TO.C,C8*%
X13821000Y765000D03*
X13821000Y-1735000D03*
%TD*%
D23*
%TO.C,Q2*%
X9757000Y765000D03*
X11027000Y-505000D03*
X9757000Y-1775000D03*
%TD*%
D24*
%TO.C,FB1*%
X232000Y-43685000D03*
D25*
X12932000Y-43685000D03*
%TD*%
D19*
%TO.C,C4*%
X19917000Y-47495000D03*
D11*
X19917000Y-49995000D03*
%TD*%
%TO.C,C1*%
X12932000Y-46225000D03*
X15432000Y-46225000D03*
%TD*%
D26*
%TO.C,RV1*%
X23052000Y979000D03*
X20552000Y-1521000D03*
X18052000Y979000D03*
%TD*%
D11*
%TO.C,R16*%
X20552000Y-6220000D03*
D12*
X12932000Y-6220000D03*
%TD*%
D11*
%TO.C,R15*%
X-11198000Y-43685000D03*
D12*
X-3578000Y-43685000D03*
%TD*%
D11*
%TO.C,C3*%
X4002000Y-7490000D03*
X1502000Y-7490000D03*
%TD*%
D27*
%TO.C,J2*%
X-7134000Y-3045000D03*
X-13134000Y-3045000D03*
D28*
X-10134000Y-7745000D03*
%TD*%
D11*
%TO.C,R12*%
X12932000Y-37970000D03*
D12*
X20552000Y-37970000D03*
%TD*%
D11*
%TO.C,R13*%
X12932000Y-40510000D03*
D12*
X20552000Y-40510000D03*
%TD*%
D23*
%TO.C,Q1*%
X-2943000Y-1775000D03*
X-4213000Y-505000D03*
X-2943000Y765000D03*
%TD*%
%TO.C,U1*%
X11662000Y-50035000D03*
X12932000Y-48765000D03*
X14202000Y-50035000D03*
%TD*%
D13*
%TO.C,J3*%
X31366000Y-34555000D03*
D14*
X35866000Y-34555000D03*
%TD*%
D11*
%TO.C,C7*%
X27537000Y-4555000D03*
X27537000Y-2055000D03*
%TD*%
D29*
%TO.C,U2*%
X1502000Y-10030000D03*
D30*
X1502000Y-12570000D03*
X1502000Y-15110000D03*
X1502000Y-17650000D03*
X1502000Y-20190000D03*
X1502000Y-22730000D03*
X1502000Y-25270000D03*
X1502000Y-27810000D03*
X1502000Y-30350000D03*
X1502000Y-32890000D03*
X1502000Y-35430000D03*
X1502000Y-37970000D03*
X9122000Y-37970000D03*
X9122000Y-35430000D03*
X9122000Y-32890000D03*
X9122000Y-30350000D03*
X9122000Y-27810000D03*
X9122000Y-25270000D03*
X9122000Y-22730000D03*
X9122000Y-20190000D03*
X9122000Y-17650000D03*
X9122000Y-15110000D03*
X9122000Y-12570000D03*
X9122000Y-10030000D03*
%TD*%
M02*
