M48
; DRILL file {KiCad (6.0.11)} date Sun Jul  9 23:55:30 2023
; FORMAT={-:-/ absolute / inch / decimal}
; #@! TF.CreationDate,2023-07-09T23:55:30-07:00
; #@! TF.GenerationSoftware,Kicad,Pcbnew,(6.0.11)
; #@! TF.FileFunction,Plated,1,2,PTH
FMAT,2
INCH
; #@! TA.AperFunction,Plated,PTH,ComponentDrill
T1C0.0295
; #@! TA.AperFunction,Plated,PTH,ComponentDrill
T2C0.0315
; #@! TA.AperFunction,Plated,PTH,ComponentDrill
T3C0.0354
; #@! TA.AperFunction,Plated,PTH,ComponentDrill
T4C0.0394
; #@! TA.AperFunction,Plated,PTH,ComponentDrill
T5C0.0429
; #@! TA.AperFunction,Plated,PTH,ComponentDrill
T6C0.0512
; #@! TA.AperFunction,Plated,PTH,ComponentDrill
T7C0.0591
; #@! TA.AperFunction,Plated,PTH,ComponentDrill
T8C0.1260
%
G90
G05
T1
X-0.1659Y-0.0199
X-0.1159Y0.0301
X-0.1159Y-0.0699
X0.3841Y0.0301
X0.3841Y-0.0699
X0.4341Y-0.0199
X0.4591Y-1.9699
X0.5091Y-1.9199
X0.5591Y-1.9699
T2
X-0.4409Y-1.7199
X-0.1409Y-1.7199
X0.0591Y-0.2949
X0.0591Y-0.3949
X0.0591Y-0.4949
X0.0591Y-0.5949
X0.0591Y-0.6949
X0.0591Y-0.7949
X0.0591Y-0.8949
X0.0591Y-0.9949
X0.0591Y-1.0949
X0.0591Y-1.1949
X0.0591Y-1.2949
X0.0591Y-1.3949
X0.0591Y-1.4949
X0.1576Y-0.2949
X0.2091Y-0.5449
X0.2091Y-0.8449
X0.2091Y-1.0449
X0.2091Y-1.3449
X0.2607Y-0.2949
X0.3591Y-0.2949
X0.3591Y-0.3949
X0.3591Y-0.4949
X0.3591Y-0.5949
X0.3591Y-0.6949
X0.3591Y-0.7949
X0.3591Y-0.8949
X0.3591Y-0.9949
X0.3591Y-1.0949
X0.3591Y-1.1949
X0.3591Y-1.2949
X0.3591Y-1.3949
X0.3591Y-1.4949
X0.5091Y-0.2449
X0.5091Y-0.3949
X0.5091Y-0.4949
X0.5091Y-0.5949
X0.5091Y-0.6949
X0.5091Y-0.7949
X0.5091Y-0.8949
X0.5091Y-0.9949
X0.5091Y-1.0949
X0.5091Y-1.1949
X0.5091Y-1.2949
X0.5091Y-1.3949
X0.5091Y-1.4949
X0.5091Y-1.5949
X0.5091Y-1.8199
X0.5441Y0.0301
X0.5441Y-0.0683
X0.6076Y-1.8199
X0.7841Y-1.8699
X0.7841Y-1.9683
X0.8091Y-0.2449
X0.8091Y-0.3949
X0.8091Y-0.4949
X0.8091Y-0.5949
X0.8091Y-0.6949
X0.8091Y-0.7949
X0.8091Y-0.8949
X0.8091Y-0.9949
X0.8091Y-1.0949
X0.8091Y-1.1949
X0.8091Y-1.2949
X0.8091Y-1.3949
X0.8091Y-1.4949
X0.8091Y-1.5949
X1.0841Y-0.0809
X1.0841Y-0.1793
X1.0841Y-0.6715
X1.0841Y-0.7699
X1.0841Y-1.262
X1.0841Y-1.3604
T3
X-0.5659Y-1.6699
X-0.5659Y-1.7699
X1.4791Y-1.7411
X1.4791Y-1.8199
X1.4791Y-1.8986
T4
X-0.4977Y-0.8282
X-0.4977Y-0.9372
X-0.4977Y-1.0463
X-0.4977Y-1.1554
X-0.3859Y-0.7737
X-0.3859Y-0.8827
X-0.3859Y-0.9918
X-0.3859Y-1.1008
X-0.3859Y-1.2099
X0.0091Y-1.7199
X0.5091Y-1.7199
T5
X-0.5409Y-1.9449
X-0.3409Y-1.9449
X-0.2409Y-1.9449
X-0.1409Y-1.9449
T6
X0.7107Y0.0385
X0.8091Y-0.0599
X0.9076Y0.0385
T7
X1.4791Y-1.6585
X1.4791Y-1.9813
T8
X-0.4418Y-0.4996
X-0.4418Y-1.4839
T4
G00X-0.5171Y-0.0805
M15
G01X-0.5171Y-0.1593
M16
G05
G00X-0.4383Y-0.3049
M15
G01X-0.3596Y-0.3049
M16
G05
G00X-0.2809Y-0.0805
M15
G01X-0.2809Y-0.1593
M16
G05
G00X1.2103Y-0.1793
M15
G01X1.2595Y-0.1793
M16
G05
G00X1.2103Y-0.7699
M15
G01X1.2595Y-0.7699
M16
G05
G00X1.2103Y-1.3604
M15
G01X1.2595Y-1.3604
M16
G05
G00X1.412Y-0.2039
M15
G01X1.412Y-0.1547
M16
G05
G00X1.412Y-0.7945
M15
G01X1.412Y-0.7453
M16
G05
G00X1.412Y-1.385
M15
G01X1.412Y-1.3358
M16
G05
T0
M30
