%TF.GenerationSoftware,KiCad,Pcbnew,(6.0.11)*%
%TF.CreationDate,2023-07-09T23:55:29-07:00*%
%TF.ProjectId,cga-ypbpr,6367612d-7970-4627-9072-2e6b69636164,rev?*%
%TF.SameCoordinates,PX2990618PY4bd2668*%
%TF.FileFunction,Legend,Top*%
%TF.FilePolarity,Positive*%
%FSLAX46Y46*%
G04 Gerber Fmt 4.6, Leading zero omitted, Abs format (unit mm)*
G04 Created by KiCad (PCBNEW (6.0.11)) date 2023-07-09 23:55:29*
%MOMM*%
%LPD*%
G01*
G04 APERTURE LIST*
%ADD10C,0.150000*%
%ADD11C,0.200000*%
%ADD12C,0.250000*%
%ADD13C,0.120000*%
G04 APERTURE END LIST*
D10*
X-16913000Y-42097500D02*
X-16278000Y-42097500D01*
X-16595500Y-41780000D02*
X-16595500Y-42415000D01*
D11*
X-16962524Y-30916809D02*
X-16069667Y-30916809D01*
X-15891096Y-30976333D01*
X-15772048Y-31095380D01*
X-15712524Y-31273952D01*
X-15712524Y-31393000D01*
X-15712524Y-29726333D02*
X-15712524Y-30321571D01*
X-16962524Y-30321571D01*
X-15831572Y-28595380D02*
X-15772048Y-28654904D01*
X-15712524Y-28833476D01*
X-15712524Y-28952523D01*
X-15772048Y-29131095D01*
X-15891096Y-29250142D01*
X-16010143Y-29309666D01*
X-16248239Y-29369190D01*
X-16426810Y-29369190D01*
X-16664905Y-29309666D01*
X-16783953Y-29250142D01*
X-16903000Y-29131095D01*
X-16962524Y-28952523D01*
X-16962524Y-28833476D01*
X-16903000Y-28654904D01*
X-16843477Y-28595380D01*
X-16962524Y-27702523D02*
X-16069667Y-27702523D01*
X-15891096Y-27762047D01*
X-15772048Y-27881095D01*
X-15712524Y-28059666D01*
X-15712524Y-28178714D01*
X-15712524Y-26512047D02*
X-15712524Y-27107285D01*
X-16962524Y-27107285D01*
X-15831572Y-25381095D02*
X-15772048Y-25440619D01*
X-15712524Y-25619190D01*
X-15712524Y-25738238D01*
X-15772048Y-25916809D01*
X-15891096Y-26035857D01*
X-16010143Y-26095380D01*
X-16248239Y-26154904D01*
X-16426810Y-26154904D01*
X-16664905Y-26095380D01*
X-16783953Y-26035857D01*
X-16903000Y-25916809D01*
X-16962524Y-25738238D01*
X-16962524Y-25619190D01*
X-16903000Y-25440619D01*
X-16843477Y-25381095D01*
X-16962524Y-24488238D02*
X-16069667Y-24488238D01*
X-15891096Y-24547761D01*
X-15772048Y-24666809D01*
X-15712524Y-24845380D01*
X-15712524Y-24964428D01*
X-15712524Y-23297761D02*
X-15712524Y-23893000D01*
X-16962524Y-23893000D01*
X-15831572Y-22166809D02*
X-15772048Y-22226333D01*
X-15712524Y-22404904D01*
X-15712524Y-22523952D01*
X-15772048Y-22702523D01*
X-15891096Y-22821571D01*
X-16010143Y-22881095D01*
X-16248239Y-22940619D01*
X-16426810Y-22940619D01*
X-16664905Y-22881095D01*
X-16783953Y-22821571D01*
X-16903000Y-22702523D01*
X-16962524Y-22523952D01*
X-16962524Y-22404904D01*
X-16903000Y-22226333D01*
X-16843477Y-22166809D01*
X-16962524Y-21273952D02*
X-16069667Y-21273952D01*
X-15891096Y-21333476D01*
X-15772048Y-21452523D01*
X-15712524Y-21631095D01*
X-15712524Y-21750142D01*
X-15712524Y-20083476D02*
X-15712524Y-20678714D01*
X-16962524Y-20678714D01*
X-15831572Y-18952523D02*
X-15772048Y-19012047D01*
X-15712524Y-19190619D01*
X-15712524Y-19309666D01*
X-15772048Y-19488238D01*
X-15891096Y-19607285D01*
X-16010143Y-19666809D01*
X-16248239Y-19726333D01*
X-16426810Y-19726333D01*
X-16664905Y-19666809D01*
X-16783953Y-19607285D01*
X-16903000Y-19488238D01*
X-16962524Y-19309666D01*
X-16962524Y-19190619D01*
X-16903000Y-19012047D01*
X-16843477Y-18952523D01*
D10*
X26616428Y-47280714D02*
X26854523Y-47947380D01*
X27092619Y-47280714D01*
X27997380Y-47947380D02*
X27425952Y-47947380D01*
X27711666Y-47947380D02*
X27711666Y-46947380D01*
X27616428Y-47090238D01*
X27521190Y-47185476D01*
X27425952Y-47233095D01*
X28425952Y-47852142D02*
X28473571Y-47899761D01*
X28425952Y-47947380D01*
X28378333Y-47899761D01*
X28425952Y-47852142D01*
X28425952Y-47947380D01*
X29092619Y-46947380D02*
X29187857Y-46947380D01*
X29283095Y-46995000D01*
X29330714Y-47042619D01*
X29378333Y-47137857D01*
X29425952Y-47328333D01*
X29425952Y-47566428D01*
X29378333Y-47756904D01*
X29330714Y-47852142D01*
X29283095Y-47899761D01*
X29187857Y-47947380D01*
X29092619Y-47947380D01*
X28997380Y-47899761D01*
X28949761Y-47852142D01*
X28902142Y-47756904D01*
X28854523Y-47566428D01*
X28854523Y-47328333D01*
X28902142Y-47137857D01*
X28949761Y-47042619D01*
X28997380Y-46995000D01*
X29092619Y-46947380D01*
D12*
X24759285Y-46268571D02*
X24759285Y-44768571D01*
X25330714Y-44768571D01*
X25473571Y-44840000D01*
X25545000Y-44911428D01*
X25616428Y-45054285D01*
X25616428Y-45268571D01*
X25545000Y-45411428D01*
X25473571Y-45482857D01*
X25330714Y-45554285D01*
X24759285Y-45554285D01*
X26259285Y-46268571D02*
X26259285Y-44768571D01*
X26616428Y-44768571D01*
X26830714Y-44840000D01*
X26973571Y-44982857D01*
X27045000Y-45125714D01*
X27116428Y-45411428D01*
X27116428Y-45625714D01*
X27045000Y-45911428D01*
X26973571Y-46054285D01*
X26830714Y-46197142D01*
X26616428Y-46268571D01*
X26259285Y-46268571D01*
X27687857Y-44911428D02*
X27759285Y-44840000D01*
X27902142Y-44768571D01*
X28259285Y-44768571D01*
X28402142Y-44840000D01*
X28473571Y-44911428D01*
X28545000Y-45054285D01*
X28545000Y-45197142D01*
X28473571Y-45411428D01*
X27616428Y-46268571D01*
X28545000Y-46268571D01*
X29473571Y-44768571D02*
X29616428Y-44768571D01*
X29759285Y-44840000D01*
X29830714Y-44911428D01*
X29902142Y-45054285D01*
X29973571Y-45340000D01*
X29973571Y-45697142D01*
X29902142Y-45982857D01*
X29830714Y-46125714D01*
X29759285Y-46197142D01*
X29616428Y-46268571D01*
X29473571Y-46268571D01*
X29330714Y-46197142D01*
X29259285Y-46125714D01*
X29187857Y-45982857D01*
X29116428Y-45697142D01*
X29116428Y-45340000D01*
X29187857Y-45054285D01*
X29259285Y-44911428D01*
X29330714Y-44840000D01*
X29473571Y-44768571D01*
X30473571Y-44768571D02*
X31402142Y-44768571D01*
X30902142Y-45340000D01*
X31116428Y-45340000D01*
X31259285Y-45411428D01*
X31330714Y-45482857D01*
X31402142Y-45625714D01*
X31402142Y-45982857D01*
X31330714Y-46125714D01*
X31259285Y-46197142D01*
X31116428Y-46268571D01*
X30687857Y-46268571D01*
X30545000Y-46197142D01*
X30473571Y-46125714D01*
D10*
%TO.C,R10*%
X22449142Y-31183380D02*
X22115809Y-30707190D01*
X21877714Y-31183380D02*
X21877714Y-30183380D01*
X22258666Y-30183380D01*
X22353904Y-30231000D01*
X22401523Y-30278619D01*
X22449142Y-30373857D01*
X22449142Y-30516714D01*
X22401523Y-30611952D01*
X22353904Y-30659571D01*
X22258666Y-30707190D01*
X21877714Y-30707190D01*
X23401523Y-31183380D02*
X22830095Y-31183380D01*
X23115809Y-31183380D02*
X23115809Y-30183380D01*
X23020571Y-30326238D01*
X22925333Y-30421476D01*
X22830095Y-30469095D01*
X24020571Y-30183380D02*
X24115809Y-30183380D01*
X24211047Y-30231000D01*
X24258666Y-30278619D01*
X24306285Y-30373857D01*
X24353904Y-30564333D01*
X24353904Y-30802428D01*
X24306285Y-30992904D01*
X24258666Y-31088142D01*
X24211047Y-31135761D01*
X24115809Y-31183380D01*
X24020571Y-31183380D01*
X23925333Y-31135761D01*
X23877714Y-31088142D01*
X23830095Y-30992904D01*
X23782476Y-30802428D01*
X23782476Y-30564333D01*
X23830095Y-30373857D01*
X23877714Y-30278619D01*
X23925333Y-30231000D01*
X24020571Y-30183380D01*
X15456285Y-32342380D02*
X16122952Y-32342380D01*
X15694380Y-33342380D01*
X16408666Y-32342380D02*
X17027714Y-32342380D01*
X16694380Y-32723333D01*
X16837238Y-32723333D01*
X16932476Y-32770952D01*
X16980095Y-32818571D01*
X17027714Y-32913809D01*
X17027714Y-33151904D01*
X16980095Y-33247142D01*
X16932476Y-33294761D01*
X16837238Y-33342380D01*
X16551523Y-33342380D01*
X16456285Y-33294761D01*
X16408666Y-33247142D01*
X17408666Y-32437619D02*
X17456285Y-32390000D01*
X17551523Y-32342380D01*
X17789619Y-32342380D01*
X17884857Y-32390000D01*
X17932476Y-32437619D01*
X17980095Y-32532857D01*
X17980095Y-32628095D01*
X17932476Y-32770952D01*
X17361047Y-33342380D01*
X17980095Y-33342380D01*
%TO.C,R5*%
X22925333Y-21658380D02*
X22592000Y-21182190D01*
X22353904Y-21658380D02*
X22353904Y-20658380D01*
X22734857Y-20658380D01*
X22830095Y-20706000D01*
X22877714Y-20753619D01*
X22925333Y-20848857D01*
X22925333Y-20991714D01*
X22877714Y-21086952D01*
X22830095Y-21134571D01*
X22734857Y-21182190D01*
X22353904Y-21182190D01*
X23830095Y-20658380D02*
X23353904Y-20658380D01*
X23306285Y-21134571D01*
X23353904Y-21086952D01*
X23449142Y-21039333D01*
X23687238Y-21039333D01*
X23782476Y-21086952D01*
X23830095Y-21134571D01*
X23877714Y-21229809D01*
X23877714Y-21467904D01*
X23830095Y-21563142D01*
X23782476Y-21610761D01*
X23687238Y-21658380D01*
X23449142Y-21658380D01*
X23353904Y-21610761D01*
X23306285Y-21563142D01*
X15456285Y-19642380D02*
X16075333Y-19642380D01*
X15742000Y-20023333D01*
X15884857Y-20023333D01*
X15980095Y-20070952D01*
X16027714Y-20118571D01*
X16075333Y-20213809D01*
X16075333Y-20451904D01*
X16027714Y-20547142D01*
X15980095Y-20594761D01*
X15884857Y-20642380D01*
X15599142Y-20642380D01*
X15503904Y-20594761D01*
X15456285Y-20547142D01*
X16932476Y-19642380D02*
X16742000Y-19642380D01*
X16646761Y-19690000D01*
X16599142Y-19737619D01*
X16503904Y-19880476D01*
X16456285Y-20070952D01*
X16456285Y-20451904D01*
X16503904Y-20547142D01*
X16551523Y-20594761D01*
X16646761Y-20642380D01*
X16837238Y-20642380D01*
X16932476Y-20594761D01*
X16980095Y-20547142D01*
X17027714Y-20451904D01*
X17027714Y-20213809D01*
X16980095Y-20118571D01*
X16932476Y-20070952D01*
X16837238Y-20023333D01*
X16646761Y-20023333D01*
X16551523Y-20070952D01*
X16503904Y-20118571D01*
X16456285Y-20213809D01*
X17932476Y-19642380D02*
X17456285Y-19642380D01*
X17408666Y-20118571D01*
X17456285Y-20070952D01*
X17551523Y-20023333D01*
X17789619Y-20023333D01*
X17884857Y-20070952D01*
X17932476Y-20118571D01*
X17980095Y-20213809D01*
X17980095Y-20451904D01*
X17932476Y-20547142D01*
X17884857Y-20594761D01*
X17789619Y-20642380D01*
X17551523Y-20642380D01*
X17456285Y-20594761D01*
X17408666Y-20547142D01*
%TO.C,R7*%
X22925333Y-25468380D02*
X22592000Y-24992190D01*
X22353904Y-25468380D02*
X22353904Y-24468380D01*
X22734857Y-24468380D01*
X22830095Y-24516000D01*
X22877714Y-24563619D01*
X22925333Y-24658857D01*
X22925333Y-24801714D01*
X22877714Y-24896952D01*
X22830095Y-24944571D01*
X22734857Y-24992190D01*
X22353904Y-24992190D01*
X23258666Y-24468380D02*
X23925333Y-24468380D01*
X23496761Y-25468380D01*
X15670571Y-25722380D02*
X15099142Y-25722380D01*
X15384857Y-25722380D02*
X15384857Y-24722380D01*
X15289619Y-24865238D01*
X15194380Y-24960476D01*
X15099142Y-25008095D01*
X16099142Y-25722380D02*
X16099142Y-24722380D01*
X16194380Y-25341428D02*
X16480095Y-25722380D01*
X16480095Y-25055714D02*
X16099142Y-25436666D01*
X17337238Y-25055714D02*
X17337238Y-25722380D01*
X17099142Y-24674761D02*
X16861047Y-25389047D01*
X17480095Y-25389047D01*
X17765809Y-24722380D02*
X18384857Y-24722380D01*
X18051523Y-25103333D01*
X18194380Y-25103333D01*
X18289619Y-25150952D01*
X18337238Y-25198571D01*
X18384857Y-25293809D01*
X18384857Y-25531904D01*
X18337238Y-25627142D01*
X18289619Y-25674761D01*
X18194380Y-25722380D01*
X17908666Y-25722380D01*
X17813428Y-25674761D01*
X17765809Y-25627142D01*
%TO.C,R8*%
X22925333Y-27373380D02*
X22592000Y-26897190D01*
X22353904Y-27373380D02*
X22353904Y-26373380D01*
X22734857Y-26373380D01*
X22830095Y-26421000D01*
X22877714Y-26468619D01*
X22925333Y-26563857D01*
X22925333Y-26706714D01*
X22877714Y-26801952D01*
X22830095Y-26849571D01*
X22734857Y-26897190D01*
X22353904Y-26897190D01*
X23496761Y-26801952D02*
X23401523Y-26754333D01*
X23353904Y-26706714D01*
X23306285Y-26611476D01*
X23306285Y-26563857D01*
X23353904Y-26468619D01*
X23401523Y-26421000D01*
X23496761Y-26373380D01*
X23687238Y-26373380D01*
X23782476Y-26421000D01*
X23830095Y-26468619D01*
X23877714Y-26563857D01*
X23877714Y-26611476D01*
X23830095Y-26706714D01*
X23782476Y-26754333D01*
X23687238Y-26801952D01*
X23496761Y-26801952D01*
X23401523Y-26849571D01*
X23353904Y-26897190D01*
X23306285Y-26992428D01*
X23306285Y-27182904D01*
X23353904Y-27278142D01*
X23401523Y-27325761D01*
X23496761Y-27373380D01*
X23687238Y-27373380D01*
X23782476Y-27325761D01*
X23830095Y-27278142D01*
X23877714Y-27182904D01*
X23877714Y-26992428D01*
X23830095Y-26897190D01*
X23782476Y-26849571D01*
X23687238Y-26801952D01*
X15099142Y-27357619D02*
X15146761Y-27310000D01*
X15242000Y-27262380D01*
X15480095Y-27262380D01*
X15575333Y-27310000D01*
X15622952Y-27357619D01*
X15670571Y-27452857D01*
X15670571Y-27548095D01*
X15622952Y-27690952D01*
X15051523Y-28262380D01*
X15670571Y-28262380D01*
X16099142Y-28262380D02*
X16099142Y-27262380D01*
X16194380Y-27881428D02*
X16480095Y-28262380D01*
X16480095Y-27595714D02*
X16099142Y-27976666D01*
X17051523Y-27690952D02*
X16956285Y-27643333D01*
X16908666Y-27595714D01*
X16861047Y-27500476D01*
X16861047Y-27452857D01*
X16908666Y-27357619D01*
X16956285Y-27310000D01*
X17051523Y-27262380D01*
X17242000Y-27262380D01*
X17337238Y-27310000D01*
X17384857Y-27357619D01*
X17432476Y-27452857D01*
X17432476Y-27500476D01*
X17384857Y-27595714D01*
X17337238Y-27643333D01*
X17242000Y-27690952D01*
X17051523Y-27690952D01*
X16956285Y-27738571D01*
X16908666Y-27786190D01*
X16861047Y-27881428D01*
X16861047Y-28071904D01*
X16908666Y-28167142D01*
X16956285Y-28214761D01*
X17051523Y-28262380D01*
X17242000Y-28262380D01*
X17337238Y-28214761D01*
X17384857Y-28167142D01*
X17432476Y-28071904D01*
X17432476Y-27881428D01*
X17384857Y-27786190D01*
X17337238Y-27738571D01*
X17242000Y-27690952D01*
X17765809Y-27262380D02*
X18432476Y-27262380D01*
X18003904Y-28262380D01*
%TO.C,R11*%
X22449142Y-33088380D02*
X22115809Y-32612190D01*
X21877714Y-33088380D02*
X21877714Y-32088380D01*
X22258666Y-32088380D01*
X22353904Y-32136000D01*
X22401523Y-32183619D01*
X22449142Y-32278857D01*
X22449142Y-32421714D01*
X22401523Y-32516952D01*
X22353904Y-32564571D01*
X22258666Y-32612190D01*
X21877714Y-32612190D01*
X23401523Y-33088380D02*
X22830095Y-33088380D01*
X23115809Y-33088380D02*
X23115809Y-32088380D01*
X23020571Y-32231238D01*
X22925333Y-32326476D01*
X22830095Y-32374095D01*
X24353904Y-33088380D02*
X23782476Y-33088380D01*
X24068190Y-33088380D02*
X24068190Y-32088380D01*
X23972952Y-32231238D01*
X23877714Y-32326476D01*
X23782476Y-32374095D01*
X15670571Y-35882380D02*
X15099142Y-35882380D01*
X15384857Y-35882380D02*
X15384857Y-34882380D01*
X15289619Y-35025238D01*
X15194380Y-35120476D01*
X15099142Y-35168095D01*
X16099142Y-35882380D02*
X16099142Y-34882380D01*
X16194380Y-35501428D02*
X16480095Y-35882380D01*
X16480095Y-35215714D02*
X16099142Y-35596666D01*
X17337238Y-35215714D02*
X17337238Y-35882380D01*
X17099142Y-34834761D02*
X16861047Y-35549047D01*
X17480095Y-35549047D01*
X17765809Y-34882380D02*
X18384857Y-34882380D01*
X18051523Y-35263333D01*
X18194380Y-35263333D01*
X18289619Y-35310952D01*
X18337238Y-35358571D01*
X18384857Y-35453809D01*
X18384857Y-35691904D01*
X18337238Y-35787142D01*
X18289619Y-35834761D01*
X18194380Y-35882380D01*
X17908666Y-35882380D01*
X17813428Y-35834761D01*
X17765809Y-35787142D01*
%TO.C,R6*%
X22925333Y-23563380D02*
X22592000Y-23087190D01*
X22353904Y-23563380D02*
X22353904Y-22563380D01*
X22734857Y-22563380D01*
X22830095Y-22611000D01*
X22877714Y-22658619D01*
X22925333Y-22753857D01*
X22925333Y-22896714D01*
X22877714Y-22991952D01*
X22830095Y-23039571D01*
X22734857Y-23087190D01*
X22353904Y-23087190D01*
X23782476Y-22563380D02*
X23592000Y-22563380D01*
X23496761Y-22611000D01*
X23449142Y-22658619D01*
X23353904Y-22801476D01*
X23306285Y-22991952D01*
X23306285Y-23372904D01*
X23353904Y-23468142D01*
X23401523Y-23515761D01*
X23496761Y-23563380D01*
X23687238Y-23563380D01*
X23782476Y-23515761D01*
X23830095Y-23468142D01*
X23877714Y-23372904D01*
X23877714Y-23134809D01*
X23830095Y-23039571D01*
X23782476Y-22991952D01*
X23687238Y-22944333D01*
X23496761Y-22944333D01*
X23401523Y-22991952D01*
X23353904Y-23039571D01*
X23306285Y-23134809D01*
X15456285Y-22182380D02*
X16122952Y-22182380D01*
X15694380Y-23182380D01*
X16408666Y-22182380D02*
X17027714Y-22182380D01*
X16694380Y-22563333D01*
X16837238Y-22563333D01*
X16932476Y-22610952D01*
X16980095Y-22658571D01*
X17027714Y-22753809D01*
X17027714Y-22991904D01*
X16980095Y-23087142D01*
X16932476Y-23134761D01*
X16837238Y-23182380D01*
X16551523Y-23182380D01*
X16456285Y-23134761D01*
X16408666Y-23087142D01*
X17408666Y-22277619D02*
X17456285Y-22230000D01*
X17551523Y-22182380D01*
X17789619Y-22182380D01*
X17884857Y-22230000D01*
X17932476Y-22277619D01*
X17980095Y-22372857D01*
X17980095Y-22468095D01*
X17932476Y-22610952D01*
X17361047Y-23182380D01*
X17980095Y-23182380D01*
%TO.C,R9*%
X22925333Y-29278380D02*
X22592000Y-28802190D01*
X22353904Y-29278380D02*
X22353904Y-28278380D01*
X22734857Y-28278380D01*
X22830095Y-28326000D01*
X22877714Y-28373619D01*
X22925333Y-28468857D01*
X22925333Y-28611714D01*
X22877714Y-28706952D01*
X22830095Y-28754571D01*
X22734857Y-28802190D01*
X22353904Y-28802190D01*
X23401523Y-29278380D02*
X23592000Y-29278380D01*
X23687238Y-29230761D01*
X23734857Y-29183142D01*
X23830095Y-29040285D01*
X23877714Y-28849809D01*
X23877714Y-28468857D01*
X23830095Y-28373619D01*
X23782476Y-28326000D01*
X23687238Y-28278380D01*
X23496761Y-28278380D01*
X23401523Y-28326000D01*
X23353904Y-28373619D01*
X23306285Y-28468857D01*
X23306285Y-28706952D01*
X23353904Y-28802190D01*
X23401523Y-28849809D01*
X23496761Y-28897428D01*
X23687238Y-28897428D01*
X23782476Y-28849809D01*
X23830095Y-28802190D01*
X23877714Y-28706952D01*
X16075333Y-30802380D02*
X15503904Y-30802380D01*
X15789619Y-30802380D02*
X15789619Y-29802380D01*
X15694380Y-29945238D01*
X15599142Y-30040476D01*
X15503904Y-30088095D01*
X16980095Y-29802380D02*
X16503904Y-29802380D01*
X16456285Y-30278571D01*
X16503904Y-30230952D01*
X16599142Y-30183333D01*
X16837238Y-30183333D01*
X16932476Y-30230952D01*
X16980095Y-30278571D01*
X17027714Y-30373809D01*
X17027714Y-30611904D01*
X16980095Y-30707142D01*
X16932476Y-30754761D01*
X16837238Y-30802380D01*
X16599142Y-30802380D01*
X16503904Y-30754761D01*
X16456285Y-30707142D01*
X17646761Y-29802380D02*
X17742000Y-29802380D01*
X17837238Y-29850000D01*
X17884857Y-29897619D01*
X17932476Y-29992857D01*
X17980095Y-30183333D01*
X17980095Y-30421428D01*
X17932476Y-30611904D01*
X17884857Y-30707142D01*
X17837238Y-30754761D01*
X17742000Y-30802380D01*
X17646761Y-30802380D01*
X17551523Y-30754761D01*
X17503904Y-30707142D01*
X17456285Y-30611904D01*
X17408666Y-30421428D01*
X17408666Y-30183333D01*
X17456285Y-29992857D01*
X17503904Y-29897619D01*
X17551523Y-29850000D01*
X17646761Y-29802380D01*
%TO.C,C5*%
X27370333Y-30602142D02*
X27322714Y-30649761D01*
X27179857Y-30697380D01*
X27084619Y-30697380D01*
X26941761Y-30649761D01*
X26846523Y-30554523D01*
X26798904Y-30459285D01*
X26751285Y-30268809D01*
X26751285Y-30125952D01*
X26798904Y-29935476D01*
X26846523Y-29840238D01*
X26941761Y-29745000D01*
X27084619Y-29697380D01*
X27179857Y-29697380D01*
X27322714Y-29745000D01*
X27370333Y-29792619D01*
X28275095Y-29697380D02*
X27798904Y-29697380D01*
X27751285Y-30173571D01*
X27798904Y-30125952D01*
X27894142Y-30078333D01*
X28132238Y-30078333D01*
X28227476Y-30125952D01*
X28275095Y-30173571D01*
X28322714Y-30268809D01*
X28322714Y-30506904D01*
X28275095Y-30602142D01*
X28227476Y-30649761D01*
X28132238Y-30697380D01*
X27894142Y-30697380D01*
X27798904Y-30649761D01*
X27751285Y-30602142D01*
X25417714Y-34471666D02*
X26084380Y-34471666D01*
X25036761Y-34709761D02*
X25751047Y-34947857D01*
X25751047Y-34328809D01*
X25084380Y-34043095D02*
X25084380Y-33376428D01*
X26084380Y-33805000D01*
X25417714Y-32995476D02*
X26417714Y-32995476D01*
X25465333Y-32995476D02*
X25417714Y-32900238D01*
X25417714Y-32709761D01*
X25465333Y-32614523D01*
X25512952Y-32566904D01*
X25608190Y-32519285D01*
X25893904Y-32519285D01*
X25989142Y-32566904D01*
X26036761Y-32614523D01*
X26084380Y-32709761D01*
X26084380Y-32900238D01*
X26036761Y-32995476D01*
X25560571Y-31757380D02*
X25560571Y-32090714D01*
X26084380Y-32090714D02*
X25084380Y-32090714D01*
X25084380Y-31614523D01*
%TO.C,C2*%
X11384142Y-7656666D02*
X11431761Y-7704285D01*
X11479380Y-7847142D01*
X11479380Y-7942380D01*
X11431761Y-8085238D01*
X11336523Y-8180476D01*
X11241285Y-8228095D01*
X11050809Y-8275714D01*
X10907952Y-8275714D01*
X10717476Y-8228095D01*
X10622238Y-8180476D01*
X10527000Y-8085238D01*
X10479380Y-7942380D01*
X10479380Y-7847142D01*
X10527000Y-7704285D01*
X10574619Y-7656666D01*
X10574619Y-7275714D02*
X10527000Y-7228095D01*
X10479380Y-7132857D01*
X10479380Y-6894761D01*
X10527000Y-6799523D01*
X10574619Y-6751904D01*
X10669857Y-6704285D01*
X10765095Y-6704285D01*
X10907952Y-6751904D01*
X11479380Y-7323333D01*
X11479380Y-6704285D01*
X7276761Y-6037380D02*
X6705333Y-6037380D01*
X6991047Y-6037380D02*
X6991047Y-5037380D01*
X6895809Y-5180238D01*
X6800571Y-5275476D01*
X6705333Y-5323095D01*
X8133904Y-5370714D02*
X8133904Y-6037380D01*
X7705333Y-5370714D02*
X7705333Y-5894523D01*
X7752952Y-5989761D01*
X7848190Y-6037380D01*
X7991047Y-6037380D01*
X8086285Y-5989761D01*
X8133904Y-5942142D01*
X8943428Y-5513571D02*
X8610095Y-5513571D01*
X8610095Y-6037380D02*
X8610095Y-5037380D01*
X9086285Y-5037380D01*
%TO.C,R2*%
X22925333Y-15943380D02*
X22592000Y-15467190D01*
X22353904Y-15943380D02*
X22353904Y-14943380D01*
X22734857Y-14943380D01*
X22830095Y-14991000D01*
X22877714Y-15038619D01*
X22925333Y-15133857D01*
X22925333Y-15276714D01*
X22877714Y-15371952D01*
X22830095Y-15419571D01*
X22734857Y-15467190D01*
X22353904Y-15467190D01*
X23306285Y-15038619D02*
X23353904Y-14991000D01*
X23449142Y-14943380D01*
X23687238Y-14943380D01*
X23782476Y-14991000D01*
X23830095Y-15038619D01*
X23877714Y-15133857D01*
X23877714Y-15229095D01*
X23830095Y-15371952D01*
X23258666Y-15943380D01*
X23877714Y-15943380D01*
X15670571Y-13022380D02*
X15099142Y-13022380D01*
X15384857Y-13022380D02*
X15384857Y-12022380D01*
X15289619Y-12165238D01*
X15194380Y-12260476D01*
X15099142Y-12308095D01*
X16099142Y-13022380D02*
X16099142Y-12022380D01*
X16194380Y-12641428D02*
X16480095Y-13022380D01*
X16480095Y-12355714D02*
X16099142Y-12736666D01*
X17337238Y-12355714D02*
X17337238Y-13022380D01*
X17099142Y-11974761D02*
X16861047Y-12689047D01*
X17480095Y-12689047D01*
X17765809Y-12022380D02*
X18384857Y-12022380D01*
X18051523Y-12403333D01*
X18194380Y-12403333D01*
X18289619Y-12450952D01*
X18337238Y-12498571D01*
X18384857Y-12593809D01*
X18384857Y-12831904D01*
X18337238Y-12927142D01*
X18289619Y-12974761D01*
X18194380Y-13022380D01*
X17908666Y-13022380D01*
X17813428Y-12974761D01*
X17765809Y-12927142D01*
%TO.C,R3*%
X22925333Y-17848380D02*
X22592000Y-17372190D01*
X22353904Y-17848380D02*
X22353904Y-16848380D01*
X22734857Y-16848380D01*
X22830095Y-16896000D01*
X22877714Y-16943619D01*
X22925333Y-17038857D01*
X22925333Y-17181714D01*
X22877714Y-17276952D01*
X22830095Y-17324571D01*
X22734857Y-17372190D01*
X22353904Y-17372190D01*
X23258666Y-16848380D02*
X23877714Y-16848380D01*
X23544380Y-17229333D01*
X23687238Y-17229333D01*
X23782476Y-17276952D01*
X23830095Y-17324571D01*
X23877714Y-17419809D01*
X23877714Y-17657904D01*
X23830095Y-17753142D01*
X23782476Y-17800761D01*
X23687238Y-17848380D01*
X23401523Y-17848380D01*
X23306285Y-17800761D01*
X23258666Y-17753142D01*
X15099142Y-14657619D02*
X15146761Y-14610000D01*
X15242000Y-14562380D01*
X15480095Y-14562380D01*
X15575333Y-14610000D01*
X15622952Y-14657619D01*
X15670571Y-14752857D01*
X15670571Y-14848095D01*
X15622952Y-14990952D01*
X15051523Y-15562380D01*
X15670571Y-15562380D01*
X16099142Y-15562380D02*
X16099142Y-14562380D01*
X16194380Y-15181428D02*
X16480095Y-15562380D01*
X16480095Y-14895714D02*
X16099142Y-15276666D01*
X17051523Y-14990952D02*
X16956285Y-14943333D01*
X16908666Y-14895714D01*
X16861047Y-14800476D01*
X16861047Y-14752857D01*
X16908666Y-14657619D01*
X16956285Y-14610000D01*
X17051523Y-14562380D01*
X17242000Y-14562380D01*
X17337238Y-14610000D01*
X17384857Y-14657619D01*
X17432476Y-14752857D01*
X17432476Y-14800476D01*
X17384857Y-14895714D01*
X17337238Y-14943333D01*
X17242000Y-14990952D01*
X17051523Y-14990952D01*
X16956285Y-15038571D01*
X16908666Y-15086190D01*
X16861047Y-15181428D01*
X16861047Y-15371904D01*
X16908666Y-15467142D01*
X16956285Y-15514761D01*
X17051523Y-15562380D01*
X17242000Y-15562380D01*
X17337238Y-15514761D01*
X17384857Y-15467142D01*
X17432476Y-15371904D01*
X17432476Y-15181428D01*
X17384857Y-15086190D01*
X17337238Y-15038571D01*
X17242000Y-14990952D01*
X17765809Y-14562380D02*
X18432476Y-14562380D01*
X18003904Y-15562380D01*
%TO.C,R4*%
X22925333Y-19753380D02*
X22592000Y-19277190D01*
X22353904Y-19753380D02*
X22353904Y-18753380D01*
X22734857Y-18753380D01*
X22830095Y-18801000D01*
X22877714Y-18848619D01*
X22925333Y-18943857D01*
X22925333Y-19086714D01*
X22877714Y-19181952D01*
X22830095Y-19229571D01*
X22734857Y-19277190D01*
X22353904Y-19277190D01*
X23782476Y-19086714D02*
X23782476Y-19753380D01*
X23544380Y-18705761D02*
X23306285Y-19420047D01*
X23925333Y-19420047D01*
X16075333Y-18102380D02*
X15503904Y-18102380D01*
X15789619Y-18102380D02*
X15789619Y-17102380D01*
X15694380Y-17245238D01*
X15599142Y-17340476D01*
X15503904Y-17388095D01*
X16980095Y-17102380D02*
X16503904Y-17102380D01*
X16456285Y-17578571D01*
X16503904Y-17530952D01*
X16599142Y-17483333D01*
X16837238Y-17483333D01*
X16932476Y-17530952D01*
X16980095Y-17578571D01*
X17027714Y-17673809D01*
X17027714Y-17911904D01*
X16980095Y-18007142D01*
X16932476Y-18054761D01*
X16837238Y-18102380D01*
X16599142Y-18102380D01*
X16503904Y-18054761D01*
X16456285Y-18007142D01*
X17646761Y-17102380D02*
X17742000Y-17102380D01*
X17837238Y-17150000D01*
X17884857Y-17197619D01*
X17932476Y-17292857D01*
X17980095Y-17483333D01*
X17980095Y-17721428D01*
X17932476Y-17911904D01*
X17884857Y-18007142D01*
X17837238Y-18054761D01*
X17742000Y-18102380D01*
X17646761Y-18102380D01*
X17551523Y-18054761D01*
X17503904Y-18007142D01*
X17456285Y-17911904D01*
X17408666Y-17721428D01*
X17408666Y-17483333D01*
X17456285Y-17292857D01*
X17503904Y-17197619D01*
X17551523Y-17150000D01*
X17646761Y-17102380D01*
%TO.C,R14*%
X4669142Y-12387380D02*
X4335809Y-11911190D01*
X4097714Y-12387380D02*
X4097714Y-11387380D01*
X4478666Y-11387380D01*
X4573904Y-11435000D01*
X4621523Y-11482619D01*
X4669142Y-11577857D01*
X4669142Y-11720714D01*
X4621523Y-11815952D01*
X4573904Y-11863571D01*
X4478666Y-11911190D01*
X4097714Y-11911190D01*
X5621523Y-12387380D02*
X5050095Y-12387380D01*
X5335809Y-12387380D02*
X5335809Y-11387380D01*
X5240571Y-11530238D01*
X5145333Y-11625476D01*
X5050095Y-11673095D01*
X6478666Y-11720714D02*
X6478666Y-12387380D01*
X6240571Y-11339761D02*
X6002476Y-12054047D01*
X6621523Y-12054047D01*
X5764380Y-18245238D02*
X5764380Y-18816666D01*
X5764380Y-18530952D02*
X4764380Y-18530952D01*
X4907238Y-18626190D01*
X5002476Y-18721428D01*
X5050095Y-18816666D01*
X4764380Y-17626190D02*
X4764380Y-17530952D01*
X4812000Y-17435714D01*
X4859619Y-17388095D01*
X4954857Y-17340476D01*
X5145333Y-17292857D01*
X5383428Y-17292857D01*
X5573904Y-17340476D01*
X5669142Y-17388095D01*
X5716761Y-17435714D01*
X5764380Y-17530952D01*
X5764380Y-17626190D01*
X5716761Y-17721428D01*
X5669142Y-17769047D01*
X5573904Y-17816666D01*
X5383428Y-17864285D01*
X5145333Y-17864285D01*
X4954857Y-17816666D01*
X4859619Y-17769047D01*
X4812000Y-17721428D01*
X4764380Y-17626190D01*
X5764380Y-16864285D02*
X4764380Y-16864285D01*
X5383428Y-16769047D02*
X5764380Y-16483333D01*
X5097714Y-16483333D02*
X5478666Y-16864285D01*
%TO.C,J4*%
X37998666Y-12911380D02*
X37998666Y-13625666D01*
X37951047Y-13768523D01*
X37855809Y-13863761D01*
X37712952Y-13911380D01*
X37617714Y-13911380D01*
X38903428Y-13244714D02*
X38903428Y-13911380D01*
X38665333Y-12863761D02*
X38427238Y-13578047D01*
X39046285Y-13578047D01*
D12*
X29231571Y-24436428D02*
X27731571Y-24436428D01*
X27731571Y-23865000D01*
X27803000Y-23722142D01*
X27874428Y-23650714D01*
X28017285Y-23579285D01*
X28231571Y-23579285D01*
X28374428Y-23650714D01*
X28445857Y-23722142D01*
X28517285Y-23865000D01*
X28517285Y-24436428D01*
X29231571Y-22936428D02*
X27731571Y-22936428D01*
X28303000Y-22936428D02*
X28231571Y-22793571D01*
X28231571Y-22507857D01*
X28303000Y-22365000D01*
X28374428Y-22293571D01*
X28517285Y-22222142D01*
X28945857Y-22222142D01*
X29088714Y-22293571D01*
X29160142Y-22365000D01*
X29231571Y-22507857D01*
X29231571Y-22793571D01*
X29160142Y-22936428D01*
D10*
%TO.C,C6*%
X27370333Y-15602142D02*
X27322714Y-15649761D01*
X27179857Y-15697380D01*
X27084619Y-15697380D01*
X26941761Y-15649761D01*
X26846523Y-15554523D01*
X26798904Y-15459285D01*
X26751285Y-15268809D01*
X26751285Y-15125952D01*
X26798904Y-14935476D01*
X26846523Y-14840238D01*
X26941761Y-14745000D01*
X27084619Y-14697380D01*
X27179857Y-14697380D01*
X27322714Y-14745000D01*
X27370333Y-14792619D01*
X28227476Y-14697380D02*
X28037000Y-14697380D01*
X27941761Y-14745000D01*
X27894142Y-14792619D01*
X27798904Y-14935476D01*
X27751285Y-15125952D01*
X27751285Y-15506904D01*
X27798904Y-15602142D01*
X27846523Y-15649761D01*
X27941761Y-15697380D01*
X28132238Y-15697380D01*
X28227476Y-15649761D01*
X28275095Y-15602142D01*
X28322714Y-15506904D01*
X28322714Y-15268809D01*
X28275095Y-15173571D01*
X28227476Y-15125952D01*
X28132238Y-15078333D01*
X27941761Y-15078333D01*
X27846523Y-15125952D01*
X27798904Y-15173571D01*
X27751285Y-15268809D01*
X25417714Y-19451666D02*
X26084380Y-19451666D01*
X25036761Y-19689761D02*
X25751047Y-19927857D01*
X25751047Y-19308809D01*
X25084380Y-19023095D02*
X25084380Y-18356428D01*
X26084380Y-18785000D01*
X25417714Y-17975476D02*
X26417714Y-17975476D01*
X25465333Y-17975476D02*
X25417714Y-17880238D01*
X25417714Y-17689761D01*
X25465333Y-17594523D01*
X25512952Y-17546904D01*
X25608190Y-17499285D01*
X25893904Y-17499285D01*
X25989142Y-17546904D01*
X26036761Y-17594523D01*
X26084380Y-17689761D01*
X26084380Y-17880238D01*
X26036761Y-17975476D01*
X25560571Y-16737380D02*
X25560571Y-17070714D01*
X26084380Y-17070714D02*
X25084380Y-17070714D01*
X25084380Y-16594523D01*
%TO.C,SW2*%
X34418761Y-50733333D02*
X34466380Y-50590476D01*
X34466380Y-50352380D01*
X34418761Y-50257142D01*
X34371142Y-50209523D01*
X34275904Y-50161904D01*
X34180666Y-50161904D01*
X34085428Y-50209523D01*
X34037809Y-50257142D01*
X33990190Y-50352380D01*
X33942571Y-50542857D01*
X33894952Y-50638095D01*
X33847333Y-50685714D01*
X33752095Y-50733333D01*
X33656857Y-50733333D01*
X33561619Y-50685714D01*
X33514000Y-50638095D01*
X33466380Y-50542857D01*
X33466380Y-50304761D01*
X33514000Y-50161904D01*
X33466380Y-49828571D02*
X34466380Y-49590476D01*
X33752095Y-49400000D01*
X34466380Y-49209523D01*
X33466380Y-48971428D01*
X33561619Y-48638095D02*
X33514000Y-48590476D01*
X33466380Y-48495238D01*
X33466380Y-48257142D01*
X33514000Y-48161904D01*
X33561619Y-48114285D01*
X33656857Y-48066666D01*
X33752095Y-48066666D01*
X33894952Y-48114285D01*
X34466380Y-48685714D01*
X34466380Y-48066666D01*
X34466380Y-45351666D02*
X33466380Y-45351666D01*
X34180666Y-45018333D01*
X33466380Y-44685000D01*
X34466380Y-44685000D01*
X34466380Y-44065952D02*
X34418761Y-44161190D01*
X34371142Y-44208809D01*
X34275904Y-44256428D01*
X33990190Y-44256428D01*
X33894952Y-44208809D01*
X33847333Y-44161190D01*
X33799714Y-44065952D01*
X33799714Y-43923095D01*
X33847333Y-43827857D01*
X33894952Y-43780238D01*
X33990190Y-43732619D01*
X34275904Y-43732619D01*
X34371142Y-43780238D01*
X34418761Y-43827857D01*
X34466380Y-43923095D01*
X34466380Y-44065952D01*
X34466380Y-42875476D02*
X33466380Y-42875476D01*
X34418761Y-42875476D02*
X34466380Y-42970714D01*
X34466380Y-43161190D01*
X34418761Y-43256428D01*
X34371142Y-43304047D01*
X34275904Y-43351666D01*
X33990190Y-43351666D01*
X33894952Y-43304047D01*
X33847333Y-43256428D01*
X33799714Y-43161190D01*
X33799714Y-42970714D01*
X33847333Y-42875476D01*
X34418761Y-42018333D02*
X34466380Y-42113571D01*
X34466380Y-42304047D01*
X34418761Y-42399285D01*
X34323523Y-42446904D01*
X33942571Y-42446904D01*
X33847333Y-42399285D01*
X33799714Y-42304047D01*
X33799714Y-42113571D01*
X33847333Y-42018333D01*
X33942571Y-41970714D01*
X34037809Y-41970714D01*
X34133047Y-42446904D01*
%TO.C,J1*%
X-17119334Y-8339380D02*
X-17119334Y-9053666D01*
X-17166953Y-9196523D01*
X-17262191Y-9291761D01*
X-17405048Y-9339380D01*
X-17500286Y-9339380D01*
X-16119334Y-9339380D02*
X-16690762Y-9339380D01*
X-16405048Y-9339380D02*
X-16405048Y-8339380D01*
X-16500286Y-8482238D01*
X-16595524Y-8577476D01*
X-16690762Y-8625095D01*
X-6649858Y-25762047D02*
X-6602239Y-25809666D01*
X-6554620Y-25952523D01*
X-6554620Y-26047761D01*
X-6602239Y-26190619D01*
X-6697477Y-26285857D01*
X-6792715Y-26333476D01*
X-6983191Y-26381095D01*
X-7126048Y-26381095D01*
X-7316524Y-26333476D01*
X-7411762Y-26285857D01*
X-7507000Y-26190619D01*
X-7554620Y-26047761D01*
X-7554620Y-25952523D01*
X-7507000Y-25809666D01*
X-7459381Y-25762047D01*
X-7507000Y-24809666D02*
X-7554620Y-24904904D01*
X-7554620Y-25047761D01*
X-7507000Y-25190619D01*
X-7411762Y-25285857D01*
X-7316524Y-25333476D01*
X-7126048Y-25381095D01*
X-6983191Y-25381095D01*
X-6792715Y-25333476D01*
X-6697477Y-25285857D01*
X-6602239Y-25190619D01*
X-6554620Y-25047761D01*
X-6554620Y-24952523D01*
X-6602239Y-24809666D01*
X-6649858Y-24762047D01*
X-6983191Y-24762047D01*
X-6983191Y-24952523D01*
X-6840334Y-24381095D02*
X-6840334Y-23904904D01*
X-6554620Y-24476333D02*
X-7554620Y-24143000D01*
X-6554620Y-23809666D01*
%TO.C,J5*%
X37998666Y2074620D02*
X37998666Y1360334D01*
X37951047Y1217477D01*
X37855809Y1122239D01*
X37712952Y1074620D01*
X37617714Y1074620D01*
X38951047Y2074620D02*
X38474857Y2074620D01*
X38427238Y1598429D01*
X38474857Y1646048D01*
X38570095Y1693667D01*
X38808190Y1693667D01*
X38903428Y1646048D01*
X38951047Y1598429D01*
X38998666Y1503191D01*
X38998666Y1265096D01*
X38951047Y1169858D01*
X38903428Y1122239D01*
X38808190Y1074620D01*
X38570095Y1074620D01*
X38474857Y1122239D01*
X38427238Y1169858D01*
D12*
X29231571Y-9490142D02*
X27731571Y-9490142D01*
X27731571Y-8918714D01*
X27803000Y-8775857D01*
X27874428Y-8704428D01*
X28017285Y-8633000D01*
X28231571Y-8633000D01*
X28374428Y-8704428D01*
X28445857Y-8775857D01*
X28517285Y-8918714D01*
X28517285Y-9490142D01*
X29231571Y-7990142D02*
X28231571Y-7990142D01*
X28517285Y-7990142D02*
X28374428Y-7918714D01*
X28303000Y-7847285D01*
X28231571Y-7704428D01*
X28231571Y-7561571D01*
D10*
%TO.C,R1*%
X22925333Y-14038380D02*
X22592000Y-13562190D01*
X22353904Y-14038380D02*
X22353904Y-13038380D01*
X22734857Y-13038380D01*
X22830095Y-13086000D01*
X22877714Y-13133619D01*
X22925333Y-13228857D01*
X22925333Y-13371714D01*
X22877714Y-13466952D01*
X22830095Y-13514571D01*
X22734857Y-13562190D01*
X22353904Y-13562190D01*
X23877714Y-14038380D02*
X23306285Y-14038380D01*
X23592000Y-14038380D02*
X23592000Y-13038380D01*
X23496761Y-13181238D01*
X23401523Y-13276476D01*
X23306285Y-13324095D01*
X15456285Y-9482380D02*
X16122952Y-9482380D01*
X15694380Y-10482380D01*
X16408666Y-9482380D02*
X17027714Y-9482380D01*
X16694380Y-9863333D01*
X16837238Y-9863333D01*
X16932476Y-9910952D01*
X16980095Y-9958571D01*
X17027714Y-10053809D01*
X17027714Y-10291904D01*
X16980095Y-10387142D01*
X16932476Y-10434761D01*
X16837238Y-10482380D01*
X16551523Y-10482380D01*
X16456285Y-10434761D01*
X16408666Y-10387142D01*
X17408666Y-9577619D02*
X17456285Y-9530000D01*
X17551523Y-9482380D01*
X17789619Y-9482380D01*
X17884857Y-9530000D01*
X17932476Y-9577619D01*
X17980095Y-9672857D01*
X17980095Y-9768095D01*
X17932476Y-9910952D01*
X17361047Y-10482380D01*
X17980095Y-10482380D01*
%TO.C,R17*%
X4669142Y-36644380D02*
X4335809Y-36168190D01*
X4097714Y-36644380D02*
X4097714Y-35644380D01*
X4478666Y-35644380D01*
X4573904Y-35692000D01*
X4621523Y-35739619D01*
X4669142Y-35834857D01*
X4669142Y-35977714D01*
X4621523Y-36072952D01*
X4573904Y-36120571D01*
X4478666Y-36168190D01*
X4097714Y-36168190D01*
X5621523Y-36644380D02*
X5050095Y-36644380D01*
X5335809Y-36644380D02*
X5335809Y-35644380D01*
X5240571Y-35787238D01*
X5145333Y-35882476D01*
X5050095Y-35930095D01*
X5954857Y-35644380D02*
X6621523Y-35644380D01*
X6192952Y-36644380D01*
X5764380Y-30945238D02*
X5764380Y-31516666D01*
X5764380Y-31230952D02*
X4764380Y-31230952D01*
X4907238Y-31326190D01*
X5002476Y-31421428D01*
X5050095Y-31516666D01*
X4764380Y-30326190D02*
X4764380Y-30230952D01*
X4812000Y-30135714D01*
X4859619Y-30088095D01*
X4954857Y-30040476D01*
X5145333Y-29992857D01*
X5383428Y-29992857D01*
X5573904Y-30040476D01*
X5669142Y-30088095D01*
X5716761Y-30135714D01*
X5764380Y-30230952D01*
X5764380Y-30326190D01*
X5716761Y-30421428D01*
X5669142Y-30469047D01*
X5573904Y-30516666D01*
X5383428Y-30564285D01*
X5145333Y-30564285D01*
X4954857Y-30516666D01*
X4859619Y-30469047D01*
X4812000Y-30421428D01*
X4764380Y-30326190D01*
X5764380Y-29564285D02*
X4764380Y-29564285D01*
X5383428Y-29469047D02*
X5764380Y-29183333D01*
X5097714Y-29183333D02*
X5478666Y-29564285D01*
%TO.C,SW1*%
X-8086334Y-47899761D02*
X-7943477Y-47947380D01*
X-7705381Y-47947380D01*
X-7610143Y-47899761D01*
X-7562524Y-47852142D01*
X-7514905Y-47756904D01*
X-7514905Y-47661666D01*
X-7562524Y-47566428D01*
X-7610143Y-47518809D01*
X-7705381Y-47471190D01*
X-7895858Y-47423571D01*
X-7991096Y-47375952D01*
X-8038715Y-47328333D01*
X-8086334Y-47233095D01*
X-8086334Y-47137857D01*
X-8038715Y-47042619D01*
X-7991096Y-46995000D01*
X-7895858Y-46947380D01*
X-7657762Y-46947380D01*
X-7514905Y-46995000D01*
X-7181572Y-46947380D02*
X-6943477Y-47947380D01*
X-6753000Y-47233095D01*
X-6562524Y-47947380D01*
X-6324429Y-46947380D01*
X-5419667Y-47947380D02*
X-5991096Y-47947380D01*
X-5705381Y-47947380D02*
X-5705381Y-46947380D01*
X-5800620Y-47090238D01*
X-5895858Y-47185476D01*
X-5991096Y-47233095D01*
X-8094191Y-51757380D02*
X-8094191Y-50757380D01*
X-7713239Y-50757380D01*
X-7618000Y-50805000D01*
X-7570381Y-50852619D01*
X-7522762Y-50947857D01*
X-7522762Y-51090714D01*
X-7570381Y-51185952D01*
X-7618000Y-51233571D01*
X-7713239Y-51281190D01*
X-8094191Y-51281190D01*
X-6951334Y-51757380D02*
X-7046572Y-51709761D01*
X-7094191Y-51662142D01*
X-7141810Y-51566904D01*
X-7141810Y-51281190D01*
X-7094191Y-51185952D01*
X-7046572Y-51138333D01*
X-6951334Y-51090714D01*
X-6808477Y-51090714D01*
X-6713239Y-51138333D01*
X-6665620Y-51185952D01*
X-6618000Y-51281190D01*
X-6618000Y-51566904D01*
X-6665620Y-51662142D01*
X-6713239Y-51709761D01*
X-6808477Y-51757380D01*
X-6951334Y-51757380D01*
X-6284667Y-51090714D02*
X-6094191Y-51757380D01*
X-5903715Y-51281190D01*
X-5713239Y-51757380D01*
X-5522762Y-51090714D01*
X-4760858Y-51709761D02*
X-4856096Y-51757380D01*
X-5046572Y-51757380D01*
X-5141810Y-51709761D01*
X-5189429Y-51614523D01*
X-5189429Y-51233571D01*
X-5141810Y-51138333D01*
X-5046572Y-51090714D01*
X-4856096Y-51090714D01*
X-4760858Y-51138333D01*
X-4713239Y-51233571D01*
X-4713239Y-51328809D01*
X-5189429Y-51424047D01*
X-4284667Y-51757380D02*
X-4284667Y-51090714D01*
X-4284667Y-51281190D02*
X-4237048Y-51185952D01*
X-4189429Y-51138333D01*
X-4094191Y-51090714D01*
X-3998953Y-51090714D01*
%TO.C,D1*%
X-16714620Y-44423095D02*
X-17714620Y-44423095D01*
X-17714620Y-44185000D01*
X-17667000Y-44042142D01*
X-17571762Y-43946904D01*
X-17476524Y-43899285D01*
X-17286048Y-43851666D01*
X-17143191Y-43851666D01*
X-16952715Y-43899285D01*
X-16857477Y-43946904D01*
X-16762239Y-44042142D01*
X-16714620Y-44185000D01*
X-16714620Y-44423095D01*
X-16714620Y-42899285D02*
X-16714620Y-43470714D01*
X-16714620Y-43185000D02*
X-17714620Y-43185000D01*
X-17571762Y-43280238D01*
X-17476524Y-43375476D01*
X-17428905Y-43470714D01*
%TO.C,C8*%
X13654333Y1995358D02*
X13606714Y1947739D01*
X13463857Y1900120D01*
X13368619Y1900120D01*
X13225761Y1947739D01*
X13130523Y2042977D01*
X13082904Y2138215D01*
X13035285Y2328691D01*
X13035285Y2471548D01*
X13082904Y2662024D01*
X13130523Y2757262D01*
X13225761Y2852500D01*
X13368619Y2900120D01*
X13463857Y2900120D01*
X13606714Y2852500D01*
X13654333Y2804881D01*
X14225761Y2471548D02*
X14130523Y2519167D01*
X14082904Y2566786D01*
X14035285Y2662024D01*
X14035285Y2709643D01*
X14082904Y2804881D01*
X14130523Y2852500D01*
X14225761Y2900120D01*
X14416238Y2900120D01*
X14511476Y2852500D01*
X14559095Y2804881D01*
X14606714Y2709643D01*
X14606714Y2662024D01*
X14559095Y2566786D01*
X14511476Y2519167D01*
X14416238Y2471548D01*
X14225761Y2471548D01*
X14130523Y2423929D01*
X14082904Y2376310D01*
X14035285Y2281072D01*
X14035285Y2090596D01*
X14082904Y1995358D01*
X14130523Y1947739D01*
X14225761Y1900120D01*
X14416238Y1900120D01*
X14511476Y1947739D01*
X14559095Y1995358D01*
X14606714Y2090596D01*
X14606714Y2281072D01*
X14559095Y2376310D01*
X14511476Y2423929D01*
X14416238Y2471548D01*
X13225761Y-3751380D02*
X12654333Y-3751380D01*
X12940047Y-3751380D02*
X12940047Y-2751380D01*
X12844809Y-2894238D01*
X12749571Y-2989476D01*
X12654333Y-3037095D01*
X13654333Y-3084714D02*
X13654333Y-3751380D01*
X13654333Y-3179952D02*
X13701952Y-3132333D01*
X13797190Y-3084714D01*
X13940047Y-3084714D01*
X14035285Y-3132333D01*
X14082904Y-3227571D01*
X14082904Y-3751380D01*
X14892428Y-3227571D02*
X14559095Y-3227571D01*
X14559095Y-3751380D02*
X14559095Y-2751380D01*
X15035285Y-2751380D01*
%TO.C,Q2*%
X7701119Y-2568738D02*
X7653500Y-2663976D01*
X7558261Y-2759214D01*
X7415404Y-2902071D01*
X7367785Y-2997309D01*
X7367785Y-3092547D01*
X7605880Y-3044928D02*
X7558261Y-3140166D01*
X7463023Y-3235404D01*
X7272547Y-3283023D01*
X6939214Y-3283023D01*
X6748738Y-3235404D01*
X6653500Y-3140166D01*
X6605880Y-3044928D01*
X6605880Y-2854452D01*
X6653500Y-2759214D01*
X6748738Y-2663976D01*
X6939214Y-2616357D01*
X7272547Y-2616357D01*
X7463023Y-2663976D01*
X7558261Y-2759214D01*
X7605880Y-2854452D01*
X7605880Y-3044928D01*
X6701119Y-2235404D02*
X6653500Y-2187785D01*
X6605880Y-2092547D01*
X6605880Y-1854452D01*
X6653500Y-1759214D01*
X6701119Y-1711595D01*
X6796357Y-1663976D01*
X6891595Y-1663976D01*
X7034452Y-1711595D01*
X7605880Y-2283023D01*
X7605880Y-1663976D01*
X7042714Y-3608619D02*
X7090333Y-3561000D01*
X7185571Y-3513380D01*
X7423666Y-3513380D01*
X7518904Y-3561000D01*
X7566523Y-3608619D01*
X7614142Y-3703857D01*
X7614142Y-3799095D01*
X7566523Y-3941952D01*
X6995095Y-4513380D01*
X7614142Y-4513380D01*
X8042714Y-4513380D02*
X8042714Y-3513380D01*
X8614142Y-4513380D01*
X8614142Y-3513380D01*
X8995095Y-3513380D02*
X9661761Y-3513380D01*
X9233190Y-4513380D01*
X10233190Y-3513380D02*
X10328428Y-3513380D01*
X10423666Y-3561000D01*
X10471285Y-3608619D01*
X10518904Y-3703857D01*
X10566523Y-3894333D01*
X10566523Y-4132428D01*
X10518904Y-4322904D01*
X10471285Y-4418142D01*
X10423666Y-4465761D01*
X10328428Y-4513380D01*
X10233190Y-4513380D01*
X10137952Y-4465761D01*
X10090333Y-4418142D01*
X10042714Y-4322904D01*
X9995095Y-4132428D01*
X9995095Y-3894333D01*
X10042714Y-3703857D01*
X10090333Y-3608619D01*
X10137952Y-3561000D01*
X10233190Y-3513380D01*
X11185571Y-3513380D02*
X11280809Y-3513380D01*
X11376047Y-3561000D01*
X11423666Y-3608619D01*
X11471285Y-3703857D01*
X11518904Y-3894333D01*
X11518904Y-4132428D01*
X11471285Y-4322904D01*
X11423666Y-4418142D01*
X11376047Y-4465761D01*
X11280809Y-4513380D01*
X11185571Y-4513380D01*
X11090333Y-4465761D01*
X11042714Y-4418142D01*
X10995095Y-4322904D01*
X10947476Y-4132428D01*
X10947476Y-3894333D01*
X10995095Y-3703857D01*
X11042714Y-3608619D01*
X11090333Y-3561000D01*
X11185571Y-3513380D01*
X12137952Y-3513380D02*
X12233190Y-3513380D01*
X12328428Y-3561000D01*
X12376047Y-3608619D01*
X12423666Y-3703857D01*
X12471285Y-3894333D01*
X12471285Y-4132428D01*
X12423666Y-4322904D01*
X12376047Y-4418142D01*
X12328428Y-4465761D01*
X12233190Y-4513380D01*
X12137952Y-4513380D01*
X12042714Y-4465761D01*
X11995095Y-4418142D01*
X11947476Y-4322904D01*
X11899857Y-4132428D01*
X11899857Y-3894333D01*
X11947476Y-3703857D01*
X11995095Y-3608619D01*
X12042714Y-3561000D01*
X12137952Y-3513380D01*
%TO.C,FB1*%
X5748666Y-43613571D02*
X5415333Y-43613571D01*
X5415333Y-44137380D02*
X5415333Y-43137380D01*
X5891523Y-43137380D01*
X6605809Y-43613571D02*
X6748666Y-43661190D01*
X6796285Y-43708809D01*
X6843904Y-43804047D01*
X6843904Y-43946904D01*
X6796285Y-44042142D01*
X6748666Y-44089761D01*
X6653428Y-44137380D01*
X6272476Y-44137380D01*
X6272476Y-43137380D01*
X6605809Y-43137380D01*
X6701047Y-43185000D01*
X6748666Y-43232619D01*
X6796285Y-43327857D01*
X6796285Y-43423095D01*
X6748666Y-43518333D01*
X6701047Y-43565952D01*
X6605809Y-43613571D01*
X6272476Y-43613571D01*
X7796285Y-44137380D02*
X7224857Y-44137380D01*
X7510571Y-44137380D02*
X7510571Y-43137380D01*
X7415333Y-43280238D01*
X7320095Y-43375476D01*
X7224857Y-43423095D01*
%TO.C,C4*%
X24195333Y-51027142D02*
X24147714Y-51074761D01*
X24004857Y-51122380D01*
X23909619Y-51122380D01*
X23766761Y-51074761D01*
X23671523Y-50979523D01*
X23623904Y-50884285D01*
X23576285Y-50693809D01*
X23576285Y-50550952D01*
X23623904Y-50360476D01*
X23671523Y-50265238D01*
X23766761Y-50170000D01*
X23909619Y-50122380D01*
X24004857Y-50122380D01*
X24147714Y-50170000D01*
X24195333Y-50217619D01*
X25052476Y-50455714D02*
X25052476Y-51122380D01*
X24814380Y-50074761D02*
X24576285Y-50789047D01*
X25195333Y-50789047D01*
X22814380Y-52392380D02*
X22242952Y-52392380D01*
X22528666Y-52392380D02*
X22528666Y-51392380D01*
X22433428Y-51535238D01*
X22338190Y-51630476D01*
X22242952Y-51678095D01*
X23433428Y-51392380D02*
X23528666Y-51392380D01*
X23623904Y-51440000D01*
X23671523Y-51487619D01*
X23719142Y-51582857D01*
X23766761Y-51773333D01*
X23766761Y-52011428D01*
X23719142Y-52201904D01*
X23671523Y-52297142D01*
X23623904Y-52344761D01*
X23528666Y-52392380D01*
X23433428Y-52392380D01*
X23338190Y-52344761D01*
X23290571Y-52297142D01*
X23242952Y-52201904D01*
X23195333Y-52011428D01*
X23195333Y-51773333D01*
X23242952Y-51582857D01*
X23290571Y-51487619D01*
X23338190Y-51440000D01*
X23433428Y-51392380D01*
X24385809Y-51392380D02*
X24481047Y-51392380D01*
X24576285Y-51440000D01*
X24623904Y-51487619D01*
X24671523Y-51582857D01*
X24719142Y-51773333D01*
X24719142Y-52011428D01*
X24671523Y-52201904D01*
X24623904Y-52297142D01*
X24576285Y-52344761D01*
X24481047Y-52392380D01*
X24385809Y-52392380D01*
X24290571Y-52344761D01*
X24242952Y-52297142D01*
X24195333Y-52201904D01*
X24147714Y-52011428D01*
X24147714Y-51773333D01*
X24195333Y-51582857D01*
X24242952Y-51487619D01*
X24290571Y-51440000D01*
X24385809Y-51392380D01*
X25576285Y-51725714D02*
X25576285Y-52392380D01*
X25147714Y-51725714D02*
X25147714Y-52249523D01*
X25195333Y-52344761D01*
X25290571Y-52392380D01*
X25433428Y-52392380D01*
X25528666Y-52344761D01*
X25576285Y-52297142D01*
X26385809Y-51868571D02*
X26052476Y-51868571D01*
X26052476Y-52392380D02*
X26052476Y-51392380D01*
X26528666Y-51392380D01*
%TO.C,C1*%
X11384142Y-47026666D02*
X11431761Y-47074285D01*
X11479380Y-47217142D01*
X11479380Y-47312380D01*
X11431761Y-47455238D01*
X11336523Y-47550476D01*
X11241285Y-47598095D01*
X11050809Y-47645714D01*
X10907952Y-47645714D01*
X10717476Y-47598095D01*
X10622238Y-47550476D01*
X10527000Y-47455238D01*
X10479380Y-47312380D01*
X10479380Y-47217142D01*
X10527000Y-47074285D01*
X10574619Y-47026666D01*
X11479380Y-46074285D02*
X11479380Y-46645714D01*
X11479380Y-46360000D02*
X10479380Y-46360000D01*
X10622238Y-46455238D01*
X10717476Y-46550476D01*
X10765095Y-46645714D01*
X14876761Y-44772380D02*
X14305333Y-44772380D01*
X14591047Y-44772380D02*
X14591047Y-43772380D01*
X14495809Y-43915238D01*
X14400571Y-44010476D01*
X14305333Y-44058095D01*
X15733904Y-44105714D02*
X15733904Y-44772380D01*
X15305333Y-44105714D02*
X15305333Y-44629523D01*
X15352952Y-44724761D01*
X15448190Y-44772380D01*
X15591047Y-44772380D01*
X15686285Y-44724761D01*
X15733904Y-44677142D01*
X16543428Y-44248571D02*
X16210095Y-44248571D01*
X16210095Y-44772380D02*
X16210095Y-43772380D01*
X16686285Y-43772380D01*
%TO.C,RV1*%
X27404380Y383762D02*
X26928190Y50429D01*
X27404380Y-187666D02*
X26404380Y-187666D01*
X26404380Y193286D01*
X26452000Y288524D01*
X26499619Y336143D01*
X26594857Y383762D01*
X26737714Y383762D01*
X26832952Y336143D01*
X26880571Y288524D01*
X26928190Y193286D01*
X26928190Y-187666D01*
X26404380Y669477D02*
X27404380Y1002810D01*
X26404380Y1336143D01*
X27404380Y2193286D02*
X27404380Y1621858D01*
X27404380Y1907572D02*
X26404380Y1907572D01*
X26547238Y1812334D01*
X26642476Y1717096D01*
X26690095Y1621858D01*
X19956761Y1582620D02*
X19385333Y1582620D01*
X19671047Y1582620D02*
X19671047Y2582620D01*
X19575809Y2439762D01*
X19480571Y2344524D01*
X19385333Y2296905D01*
X20575809Y2582620D02*
X20671047Y2582620D01*
X20766285Y2535000D01*
X20813904Y2487381D01*
X20861523Y2392143D01*
X20909142Y2201667D01*
X20909142Y1963572D01*
X20861523Y1773096D01*
X20813904Y1677858D01*
X20766285Y1630239D01*
X20671047Y1582620D01*
X20575809Y1582620D01*
X20480571Y1630239D01*
X20432952Y1677858D01*
X20385333Y1773096D01*
X20337714Y1963572D01*
X20337714Y2201667D01*
X20385333Y2392143D01*
X20432952Y2487381D01*
X20480571Y2535000D01*
X20575809Y2582620D01*
X21337714Y1582620D02*
X21337714Y2582620D01*
X21432952Y1963572D02*
X21718666Y1582620D01*
X21718666Y2249286D02*
X21337714Y1868334D01*
%TO.C,R16*%
X22449142Y-6672380D02*
X22115809Y-6196190D01*
X21877714Y-6672380D02*
X21877714Y-5672380D01*
X22258666Y-5672380D01*
X22353904Y-5720000D01*
X22401523Y-5767619D01*
X22449142Y-5862857D01*
X22449142Y-6005714D01*
X22401523Y-6100952D01*
X22353904Y-6148571D01*
X22258666Y-6196190D01*
X21877714Y-6196190D01*
X23401523Y-6672380D02*
X22830095Y-6672380D01*
X23115809Y-6672380D02*
X23115809Y-5672380D01*
X23020571Y-5815238D01*
X22925333Y-5910476D01*
X22830095Y-5958095D01*
X24258666Y-5672380D02*
X24068190Y-5672380D01*
X23972952Y-5720000D01*
X23925333Y-5767619D01*
X23830095Y-5910476D01*
X23782476Y-6100952D01*
X23782476Y-6481904D01*
X23830095Y-6577142D01*
X23877714Y-6624761D01*
X23972952Y-6672380D01*
X24163428Y-6672380D01*
X24258666Y-6624761D01*
X24306285Y-6577142D01*
X24353904Y-6481904D01*
X24353904Y-6243809D01*
X24306285Y-6148571D01*
X24258666Y-6100952D01*
X24163428Y-6053333D01*
X23972952Y-6053333D01*
X23877714Y-6100952D01*
X23830095Y-6148571D01*
X23782476Y-6243809D01*
X16622952Y-6672380D02*
X16051523Y-6672380D01*
X16337238Y-6672380D02*
X16337238Y-5672380D01*
X16242000Y-5815238D01*
X16146761Y-5910476D01*
X16051523Y-5958095D01*
X17051523Y-6672380D02*
X17051523Y-5672380D01*
X17146761Y-6291428D02*
X17432476Y-6672380D01*
X17432476Y-6005714D02*
X17051523Y-6386666D01*
%TO.C,R15*%
X-8030858Y-41978380D02*
X-8364191Y-41502190D01*
X-8602286Y-41978380D02*
X-8602286Y-40978380D01*
X-8221334Y-40978380D01*
X-8126096Y-41026000D01*
X-8078477Y-41073619D01*
X-8030858Y-41168857D01*
X-8030858Y-41311714D01*
X-8078477Y-41406952D01*
X-8126096Y-41454571D01*
X-8221334Y-41502190D01*
X-8602286Y-41502190D01*
X-7078477Y-41978380D02*
X-7649905Y-41978380D01*
X-7364191Y-41978380D02*
X-7364191Y-40978380D01*
X-7459429Y-41121238D01*
X-7554667Y-41216476D01*
X-7649905Y-41264095D01*
X-6173715Y-40978380D02*
X-6649905Y-40978380D01*
X-6697524Y-41454571D01*
X-6649905Y-41406952D01*
X-6554667Y-41359333D01*
X-6316572Y-41359333D01*
X-6221334Y-41406952D01*
X-6173715Y-41454571D01*
X-6126096Y-41549809D01*
X-6126096Y-41787904D01*
X-6173715Y-41883142D01*
X-6221334Y-41930761D01*
X-6316572Y-41978380D01*
X-6554667Y-41978380D01*
X-6649905Y-41930761D01*
X-6697524Y-41883142D01*
X-8673715Y-43137380D02*
X-8054667Y-43137380D01*
X-8388000Y-43518333D01*
X-8245143Y-43518333D01*
X-8149905Y-43565952D01*
X-8102286Y-43613571D01*
X-8054667Y-43708809D01*
X-8054667Y-43946904D01*
X-8102286Y-44042142D01*
X-8149905Y-44089761D01*
X-8245143Y-44137380D01*
X-8530858Y-44137380D01*
X-8626096Y-44089761D01*
X-8673715Y-44042142D01*
X-7721334Y-43137380D02*
X-7102286Y-43137380D01*
X-7435620Y-43518333D01*
X-7292762Y-43518333D01*
X-7197524Y-43565952D01*
X-7149905Y-43613571D01*
X-7102286Y-43708809D01*
X-7102286Y-43946904D01*
X-7149905Y-44042142D01*
X-7197524Y-44089761D01*
X-7292762Y-44137380D01*
X-7578477Y-44137380D01*
X-7673715Y-44089761D01*
X-7721334Y-44042142D01*
X-6483239Y-43137380D02*
X-6388000Y-43137380D01*
X-6292762Y-43185000D01*
X-6245143Y-43232619D01*
X-6197524Y-43327857D01*
X-6149905Y-43518333D01*
X-6149905Y-43756428D01*
X-6197524Y-43946904D01*
X-6245143Y-44042142D01*
X-6292762Y-44089761D01*
X-6388000Y-44137380D01*
X-6483239Y-44137380D01*
X-6578477Y-44089761D01*
X-6626096Y-44042142D01*
X-6673715Y-43946904D01*
X-6721334Y-43756428D01*
X-6721334Y-43518333D01*
X-6673715Y-43327857D01*
X-6626096Y-43232619D01*
X-6578477Y-43185000D01*
X-6483239Y-43137380D01*
%TO.C,C3*%
X-45858Y-7656666D02*
X1761Y-7704285D01*
X49380Y-7847142D01*
X49380Y-7942380D01*
X1761Y-8085238D01*
X-93477Y-8180476D01*
X-188715Y-8228095D01*
X-379191Y-8275714D01*
X-522048Y-8275714D01*
X-712524Y-8228095D01*
X-807762Y-8180476D01*
X-903000Y-8085238D01*
X-950620Y-7942380D01*
X-950620Y-7847142D01*
X-903000Y-7704285D01*
X-855381Y-7656666D01*
X-950620Y-7323333D02*
X-950620Y-6704285D01*
X-569667Y-7037619D01*
X-569667Y-6894761D01*
X-522048Y-6799523D01*
X-474429Y-6751904D01*
X-379191Y-6704285D01*
X-141096Y-6704285D01*
X-45858Y-6751904D01*
X1761Y-6799523D01*
X49380Y-6894761D01*
X49380Y-7180476D01*
X1761Y-7275714D01*
X-45858Y-7323333D01*
X2176761Y-6037380D02*
X1605333Y-6037380D01*
X1891047Y-6037380D02*
X1891047Y-5037380D01*
X1795809Y-5180238D01*
X1700571Y-5275476D01*
X1605333Y-5323095D01*
X3033904Y-5370714D02*
X3033904Y-6037380D01*
X2605333Y-5370714D02*
X2605333Y-5894523D01*
X2652952Y-5989761D01*
X2748190Y-6037380D01*
X2891047Y-6037380D01*
X2986285Y-5989761D01*
X3033904Y-5942142D01*
X3843428Y-5513571D02*
X3510095Y-5513571D01*
X3510095Y-6037380D02*
X3510095Y-5037380D01*
X3986285Y-5037380D01*
%TO.C,J2*%
X-17119334Y2900120D02*
X-17119334Y2185834D01*
X-17166953Y2042977D01*
X-17262191Y1947739D01*
X-17405048Y1900120D01*
X-17500286Y1900120D01*
X-16690762Y2804881D02*
X-16643143Y2852500D01*
X-16547905Y2900120D01*
X-16309810Y2900120D01*
X-16214572Y2852500D01*
X-16166953Y2804881D01*
X-16119334Y2709643D01*
X-16119334Y2614405D01*
X-16166953Y2471548D01*
X-16738381Y1900120D01*
X-16119334Y1900120D01*
X-5030620Y-9466190D02*
X-6030620Y-9466190D01*
X-6030620Y-9085238D01*
X-5983000Y-8990000D01*
X-5935381Y-8942380D01*
X-5840143Y-8894761D01*
X-5697286Y-8894761D01*
X-5602048Y-8942380D01*
X-5554429Y-8990000D01*
X-5506810Y-9085238D01*
X-5506810Y-9466190D01*
X-5030620Y-8323333D02*
X-5078239Y-8418571D01*
X-5125858Y-8466190D01*
X-5221096Y-8513809D01*
X-5506810Y-8513809D01*
X-5602048Y-8466190D01*
X-5649667Y-8418571D01*
X-5697286Y-8323333D01*
X-5697286Y-8180476D01*
X-5649667Y-8085238D01*
X-5602048Y-8037619D01*
X-5506810Y-7990000D01*
X-5221096Y-7990000D01*
X-5125858Y-8037619D01*
X-5078239Y-8085238D01*
X-5030620Y-8180476D01*
X-5030620Y-8323333D01*
X-5697286Y-7656666D02*
X-5030620Y-7466190D01*
X-5506810Y-7275714D01*
X-5030620Y-7085238D01*
X-5697286Y-6894761D01*
X-5078239Y-6132857D02*
X-5030620Y-6228095D01*
X-5030620Y-6418571D01*
X-5078239Y-6513809D01*
X-5173477Y-6561428D01*
X-5554429Y-6561428D01*
X-5649667Y-6513809D01*
X-5697286Y-6418571D01*
X-5697286Y-6228095D01*
X-5649667Y-6132857D01*
X-5554429Y-6085238D01*
X-5459191Y-6085238D01*
X-5363953Y-6561428D01*
X-5030620Y-5656666D02*
X-5697286Y-5656666D01*
X-5506810Y-5656666D02*
X-5602048Y-5609047D01*
X-5649667Y-5561428D01*
X-5697286Y-5466190D01*
X-5697286Y-5370952D01*
%TO.C,R12*%
X22449142Y-34993380D02*
X22115809Y-34517190D01*
X21877714Y-34993380D02*
X21877714Y-33993380D01*
X22258666Y-33993380D01*
X22353904Y-34041000D01*
X22401523Y-34088619D01*
X22449142Y-34183857D01*
X22449142Y-34326714D01*
X22401523Y-34421952D01*
X22353904Y-34469571D01*
X22258666Y-34517190D01*
X21877714Y-34517190D01*
X23401523Y-34993380D02*
X22830095Y-34993380D01*
X23115809Y-34993380D02*
X23115809Y-33993380D01*
X23020571Y-34136238D01*
X22925333Y-34231476D01*
X22830095Y-34279095D01*
X23782476Y-34088619D02*
X23830095Y-34041000D01*
X23925333Y-33993380D01*
X24163428Y-33993380D01*
X24258666Y-34041000D01*
X24306285Y-34088619D01*
X24353904Y-34183857D01*
X24353904Y-34279095D01*
X24306285Y-34421952D01*
X23734857Y-34993380D01*
X24353904Y-34993380D01*
X15099142Y-37517619D02*
X15146761Y-37470000D01*
X15242000Y-37422380D01*
X15480095Y-37422380D01*
X15575333Y-37470000D01*
X15622952Y-37517619D01*
X15670571Y-37612857D01*
X15670571Y-37708095D01*
X15622952Y-37850952D01*
X15051523Y-38422380D01*
X15670571Y-38422380D01*
X16099142Y-38422380D02*
X16099142Y-37422380D01*
X16194380Y-38041428D02*
X16480095Y-38422380D01*
X16480095Y-37755714D02*
X16099142Y-38136666D01*
X17051523Y-37850952D02*
X16956285Y-37803333D01*
X16908666Y-37755714D01*
X16861047Y-37660476D01*
X16861047Y-37612857D01*
X16908666Y-37517619D01*
X16956285Y-37470000D01*
X17051523Y-37422380D01*
X17242000Y-37422380D01*
X17337238Y-37470000D01*
X17384857Y-37517619D01*
X17432476Y-37612857D01*
X17432476Y-37660476D01*
X17384857Y-37755714D01*
X17337238Y-37803333D01*
X17242000Y-37850952D01*
X17051523Y-37850952D01*
X16956285Y-37898571D01*
X16908666Y-37946190D01*
X16861047Y-38041428D01*
X16861047Y-38231904D01*
X16908666Y-38327142D01*
X16956285Y-38374761D01*
X17051523Y-38422380D01*
X17242000Y-38422380D01*
X17337238Y-38374761D01*
X17384857Y-38327142D01*
X17432476Y-38231904D01*
X17432476Y-38041428D01*
X17384857Y-37946190D01*
X17337238Y-37898571D01*
X17242000Y-37850952D01*
X17765809Y-37422380D02*
X18432476Y-37422380D01*
X18003904Y-38422380D01*
%TO.C,R13*%
X22449142Y-36898380D02*
X22115809Y-36422190D01*
X21877714Y-36898380D02*
X21877714Y-35898380D01*
X22258666Y-35898380D01*
X22353904Y-35946000D01*
X22401523Y-35993619D01*
X22449142Y-36088857D01*
X22449142Y-36231714D01*
X22401523Y-36326952D01*
X22353904Y-36374571D01*
X22258666Y-36422190D01*
X21877714Y-36422190D01*
X23401523Y-36898380D02*
X22830095Y-36898380D01*
X23115809Y-36898380D02*
X23115809Y-35898380D01*
X23020571Y-36041238D01*
X22925333Y-36136476D01*
X22830095Y-36184095D01*
X23734857Y-35898380D02*
X24353904Y-35898380D01*
X24020571Y-36279333D01*
X24163428Y-36279333D01*
X24258666Y-36326952D01*
X24306285Y-36374571D01*
X24353904Y-36469809D01*
X24353904Y-36707904D01*
X24306285Y-36803142D01*
X24258666Y-36850761D01*
X24163428Y-36898380D01*
X23877714Y-36898380D01*
X23782476Y-36850761D01*
X23734857Y-36803142D01*
X16075333Y-40962380D02*
X15503904Y-40962380D01*
X15789619Y-40962380D02*
X15789619Y-39962380D01*
X15694380Y-40105238D01*
X15599142Y-40200476D01*
X15503904Y-40248095D01*
X16980095Y-39962380D02*
X16503904Y-39962380D01*
X16456285Y-40438571D01*
X16503904Y-40390952D01*
X16599142Y-40343333D01*
X16837238Y-40343333D01*
X16932476Y-40390952D01*
X16980095Y-40438571D01*
X17027714Y-40533809D01*
X17027714Y-40771904D01*
X16980095Y-40867142D01*
X16932476Y-40914761D01*
X16837238Y-40962380D01*
X16599142Y-40962380D01*
X16503904Y-40914761D01*
X16456285Y-40867142D01*
X17646761Y-39962380D02*
X17742000Y-39962380D01*
X17837238Y-40010000D01*
X17884857Y-40057619D01*
X17932476Y-40152857D01*
X17980095Y-40343333D01*
X17980095Y-40581428D01*
X17932476Y-40771904D01*
X17884857Y-40867142D01*
X17837238Y-40914761D01*
X17742000Y-40962380D01*
X17646761Y-40962380D01*
X17551523Y-40914761D01*
X17503904Y-40867142D01*
X17456285Y-40771904D01*
X17408666Y-40581428D01*
X17408666Y-40343333D01*
X17456285Y-40152857D01*
X17503904Y-40057619D01*
X17551523Y-40010000D01*
X17646761Y-39962380D01*
%TO.C,Q1*%
X271619Y-2568738D02*
X224000Y-2663976D01*
X128761Y-2759214D01*
X-14096Y-2902071D01*
X-61715Y-2997309D01*
X-61715Y-3092547D01*
X176380Y-3044928D02*
X128761Y-3140166D01*
X33523Y-3235404D01*
X-156953Y-3283023D01*
X-490286Y-3283023D01*
X-680762Y-3235404D01*
X-776000Y-3140166D01*
X-823620Y-3044928D01*
X-823620Y-2854452D01*
X-776000Y-2759214D01*
X-680762Y-2663976D01*
X-490286Y-2616357D01*
X-156953Y-2616357D01*
X33523Y-2663976D01*
X128761Y-2759214D01*
X176380Y-2854452D01*
X176380Y-3044928D01*
X176380Y-1663976D02*
X176380Y-2235404D01*
X176380Y-1949690D02*
X-823620Y-1949690D01*
X-680762Y-2044928D01*
X-585524Y-2140166D01*
X-537905Y-2235404D01*
X-5657286Y-3608619D02*
X-5609667Y-3561000D01*
X-5514429Y-3513380D01*
X-5276334Y-3513380D01*
X-5181096Y-3561000D01*
X-5133477Y-3608619D01*
X-5085858Y-3703857D01*
X-5085858Y-3799095D01*
X-5133477Y-3941952D01*
X-5704905Y-4513380D01*
X-5085858Y-4513380D01*
X-4657286Y-4513380D02*
X-4657286Y-3513380D01*
X-4085858Y-4513380D01*
X-4085858Y-3513380D01*
X-3704905Y-3513380D02*
X-3038239Y-3513380D01*
X-3466810Y-4513380D01*
X-2466810Y-3513380D02*
X-2371572Y-3513380D01*
X-2276334Y-3561000D01*
X-2228715Y-3608619D01*
X-2181096Y-3703857D01*
X-2133477Y-3894333D01*
X-2133477Y-4132428D01*
X-2181096Y-4322904D01*
X-2228715Y-4418142D01*
X-2276334Y-4465761D01*
X-2371572Y-4513380D01*
X-2466810Y-4513380D01*
X-2562048Y-4465761D01*
X-2609667Y-4418142D01*
X-2657286Y-4322904D01*
X-2704905Y-4132428D01*
X-2704905Y-3894333D01*
X-2657286Y-3703857D01*
X-2609667Y-3608619D01*
X-2562048Y-3561000D01*
X-2466810Y-3513380D01*
X-1514429Y-3513380D02*
X-1419191Y-3513380D01*
X-1323953Y-3561000D01*
X-1276334Y-3608619D01*
X-1228715Y-3703857D01*
X-1181096Y-3894333D01*
X-1181096Y-4132428D01*
X-1228715Y-4322904D01*
X-1276334Y-4418142D01*
X-1323953Y-4465761D01*
X-1419191Y-4513380D01*
X-1514429Y-4513380D01*
X-1609667Y-4465761D01*
X-1657286Y-4418142D01*
X-1704905Y-4322904D01*
X-1752524Y-4132428D01*
X-1752524Y-3894333D01*
X-1704905Y-3703857D01*
X-1657286Y-3608619D01*
X-1609667Y-3561000D01*
X-1514429Y-3513380D01*
X-562048Y-3513380D02*
X-466810Y-3513380D01*
X-371572Y-3561000D01*
X-323953Y-3608619D01*
X-276334Y-3703857D01*
X-228715Y-3894333D01*
X-228715Y-4132428D01*
X-276334Y-4322904D01*
X-323953Y-4418142D01*
X-371572Y-4465761D01*
X-466810Y-4513380D01*
X-562048Y-4513380D01*
X-657286Y-4465761D01*
X-704905Y-4418142D01*
X-752524Y-4322904D01*
X-800143Y-4132428D01*
X-800143Y-3894333D01*
X-752524Y-3703857D01*
X-704905Y-3608619D01*
X-657286Y-3561000D01*
X-562048Y-3513380D01*
%TO.C,U1*%
X8955380Y-50542904D02*
X9764904Y-50542904D01*
X9860142Y-50495285D01*
X9907761Y-50447666D01*
X9955380Y-50352428D01*
X9955380Y-50161952D01*
X9907761Y-50066714D01*
X9860142Y-50019095D01*
X9764904Y-49971476D01*
X8955380Y-49971476D01*
X9955380Y-48971476D02*
X9955380Y-49542904D01*
X9955380Y-49257190D02*
X8955380Y-49257190D01*
X9098238Y-49352428D01*
X9193476Y-49447666D01*
X9241095Y-49542904D01*
%TO.C,J3*%
X37998666Y-27897380D02*
X37998666Y-28611666D01*
X37951047Y-28754523D01*
X37855809Y-28849761D01*
X37712952Y-28897380D01*
X37617714Y-28897380D01*
X38379619Y-27897380D02*
X38998666Y-27897380D01*
X38665333Y-28278333D01*
X38808190Y-28278333D01*
X38903428Y-28325952D01*
X38951047Y-28373571D01*
X38998666Y-28468809D01*
X38998666Y-28706904D01*
X38951047Y-28802142D01*
X38903428Y-28849761D01*
X38808190Y-28897380D01*
X38522476Y-28897380D01*
X38427238Y-28849761D01*
X38379619Y-28802142D01*
D12*
X28517285Y-38986000D02*
X29231571Y-38986000D01*
X27731571Y-39486000D02*
X28517285Y-38986000D01*
X27731571Y-38486000D01*
D10*
%TO.C,C7*%
X28783142Y-36666D02*
X28830761Y-84285D01*
X28878380Y-227142D01*
X28878380Y-322380D01*
X28830761Y-465238D01*
X28735523Y-560476D01*
X28640285Y-608095D01*
X28449809Y-655714D01*
X28306952Y-655714D01*
X28116476Y-608095D01*
X28021238Y-560476D01*
X27926000Y-465238D01*
X27878380Y-322380D01*
X27878380Y-227142D01*
X27926000Y-84285D01*
X27973619Y-36666D01*
X27878380Y296667D02*
X27878380Y963334D01*
X28878380Y534762D01*
X25417714Y-7132666D02*
X26084380Y-7132666D01*
X25036761Y-7370761D02*
X25751047Y-7608857D01*
X25751047Y-6989809D01*
X25084380Y-6704095D02*
X25084380Y-6037428D01*
X26084380Y-6466000D01*
X25417714Y-5656476D02*
X26417714Y-5656476D01*
X25465333Y-5656476D02*
X25417714Y-5561238D01*
X25417714Y-5370761D01*
X25465333Y-5275523D01*
X25512952Y-5227904D01*
X25608190Y-5180285D01*
X25893904Y-5180285D01*
X25989142Y-5227904D01*
X26036761Y-5275523D01*
X26084380Y-5370761D01*
X26084380Y-5561238D01*
X26036761Y-5656476D01*
X25560571Y-4418380D02*
X25560571Y-4751714D01*
X26084380Y-4751714D02*
X25084380Y-4751714D01*
X25084380Y-4275523D01*
%TO.C,U2*%
X4550095Y-23452380D02*
X4550095Y-24261904D01*
X4597714Y-24357142D01*
X4645333Y-24404761D01*
X4740571Y-24452380D01*
X4931047Y-24452380D01*
X5026285Y-24404761D01*
X5073904Y-24357142D01*
X5121523Y-24261904D01*
X5121523Y-23452380D01*
X5550095Y-23547619D02*
X5597714Y-23500000D01*
X5692952Y-23452380D01*
X5931047Y-23452380D01*
X6026285Y-23500000D01*
X6073904Y-23547619D01*
X6121523Y-23642857D01*
X6121523Y-23738095D01*
X6073904Y-23880952D01*
X5502476Y-24452380D01*
X6121523Y-24452380D01*
X1526285Y-40549666D02*
X2002476Y-40549666D01*
X1431047Y-40835380D02*
X1764380Y-39835380D01*
X2097714Y-40835380D01*
X2288190Y-39835380D02*
X2859619Y-39835380D01*
X2573904Y-40835380D02*
X2573904Y-39835380D01*
X3526285Y-40311571D02*
X3192952Y-40311571D01*
X3192952Y-40835380D02*
X3192952Y-39835380D01*
X3669142Y-39835380D01*
X4002476Y-39930619D02*
X4050095Y-39883000D01*
X4145333Y-39835380D01*
X4383428Y-39835380D01*
X4478666Y-39883000D01*
X4526285Y-39930619D01*
X4573904Y-40025857D01*
X4573904Y-40121095D01*
X4526285Y-40263952D01*
X3954857Y-40835380D01*
X4573904Y-40835380D01*
X4954857Y-39930619D02*
X5002476Y-39883000D01*
X5097714Y-39835380D01*
X5335809Y-39835380D01*
X5431047Y-39883000D01*
X5478666Y-39930619D01*
X5526285Y-40025857D01*
X5526285Y-40121095D01*
X5478666Y-40263952D01*
X4907238Y-40835380D01*
X5526285Y-40835380D01*
X6431047Y-40835380D02*
X5954857Y-40835380D01*
X5954857Y-39835380D01*
X6621523Y-39835380D02*
X6954857Y-40835380D01*
X7288190Y-39835380D01*
X8145333Y-40835380D02*
X7573904Y-40835380D01*
X7859619Y-40835380D02*
X7859619Y-39835380D01*
X7764380Y-39978238D01*
X7669142Y-40073476D01*
X7573904Y-40121095D01*
X8764380Y-39835380D02*
X8859619Y-39835380D01*
X8954857Y-39883000D01*
X9002476Y-39930619D01*
X9050095Y-40025857D01*
X9097714Y-40216333D01*
X9097714Y-40454428D01*
X9050095Y-40644904D01*
X9002476Y-40740142D01*
X8954857Y-40787761D01*
X8859619Y-40835380D01*
X8764380Y-40835380D01*
X8669142Y-40787761D01*
X8621523Y-40740142D01*
X8573904Y-40644904D01*
X8526285Y-40454428D01*
X8526285Y-40216333D01*
X8573904Y-40025857D01*
X8621523Y-39930619D01*
X8669142Y-39883000D01*
X8764380Y-39835380D01*
D13*
%TO.C,R10*%
X13472000Y-34260000D02*
X20012000Y-34260000D01*
X20012000Y-31520000D02*
X20012000Y-31850000D01*
X13472000Y-31850000D02*
X13472000Y-31520000D01*
X13472000Y-33930000D02*
X13472000Y-34260000D01*
X20012000Y-34260000D02*
X20012000Y-33930000D01*
X13472000Y-31520000D02*
X20012000Y-31520000D01*
%TO.C,R5*%
X20012000Y-21560000D02*
X20012000Y-21230000D01*
X13472000Y-21560000D02*
X20012000Y-21560000D01*
X13472000Y-21230000D02*
X13472000Y-21560000D01*
X13472000Y-19150000D02*
X13472000Y-18820000D01*
X20012000Y-18820000D02*
X20012000Y-19150000D01*
X13472000Y-18820000D02*
X20012000Y-18820000D01*
%TO.C,R7*%
X20012000Y-26640000D02*
X20012000Y-26310000D01*
X20012000Y-23900000D02*
X20012000Y-24230000D01*
X13472000Y-26640000D02*
X20012000Y-26640000D01*
X13472000Y-26310000D02*
X13472000Y-26640000D01*
X13472000Y-23900000D02*
X20012000Y-23900000D01*
X13472000Y-24230000D02*
X13472000Y-23900000D01*
%TO.C,R8*%
X13472000Y-29180000D02*
X20012000Y-29180000D01*
X13472000Y-26770000D02*
X13472000Y-26440000D01*
X20012000Y-29180000D02*
X20012000Y-28850000D01*
X20012000Y-26440000D02*
X20012000Y-26770000D01*
X13472000Y-26440000D02*
X20012000Y-26440000D01*
X13472000Y-28850000D02*
X13472000Y-29180000D01*
%TO.C,R11*%
X20012000Y-36800000D02*
X20012000Y-36470000D01*
X13472000Y-34390000D02*
X13472000Y-34060000D01*
X13472000Y-36470000D02*
X13472000Y-36800000D01*
X20012000Y-34060000D02*
X20012000Y-34390000D01*
X13472000Y-36800000D02*
X20012000Y-36800000D01*
X13472000Y-34060000D02*
X20012000Y-34060000D01*
%TO.C,R6*%
X13472000Y-24100000D02*
X20012000Y-24100000D01*
X20012000Y-21360000D02*
X20012000Y-21690000D01*
X13472000Y-23770000D02*
X13472000Y-24100000D01*
X20012000Y-24100000D02*
X20012000Y-23770000D01*
X13472000Y-21360000D02*
X20012000Y-21360000D01*
X13472000Y-21690000D02*
X13472000Y-21360000D01*
%TO.C,R9*%
X13472000Y-28980000D02*
X20012000Y-28980000D01*
X13472000Y-31390000D02*
X13472000Y-31720000D01*
X20012000Y-31720000D02*
X20012000Y-31390000D01*
X13472000Y-31720000D02*
X20012000Y-31720000D01*
X20012000Y-28980000D02*
X20012000Y-29310000D01*
X13472000Y-29310000D02*
X13472000Y-28980000D01*
%TO.C,C5*%
X28457000Y-33934000D02*
X28457000Y-32676000D01*
X26617000Y-33934000D02*
X26617000Y-32676000D01*
%TO.C,C2*%
X6252000Y-8610000D02*
X6252000Y-8545000D01*
X9492000Y-6370000D02*
X6252000Y-6370000D01*
X6252000Y-6435000D02*
X6252000Y-6370000D01*
X9492000Y-6435000D02*
X9492000Y-6370000D01*
X9492000Y-8610000D02*
X6252000Y-8610000D01*
X9492000Y-8610000D02*
X9492000Y-8545000D01*
%TO.C,R2*%
X13472000Y-11530000D02*
X13472000Y-11200000D01*
X13472000Y-11200000D02*
X20012000Y-11200000D01*
X20012000Y-11200000D02*
X20012000Y-11530000D01*
X13472000Y-13940000D02*
X20012000Y-13940000D01*
X20012000Y-13940000D02*
X20012000Y-13610000D01*
X13472000Y-13610000D02*
X13472000Y-13940000D01*
%TO.C,R3*%
X20012000Y-13740000D02*
X20012000Y-14070000D01*
X13472000Y-16150000D02*
X13472000Y-16480000D01*
X13472000Y-13740000D02*
X20012000Y-13740000D01*
X20012000Y-16480000D02*
X20012000Y-16150000D01*
X13472000Y-16480000D02*
X20012000Y-16480000D01*
X13472000Y-14070000D02*
X13472000Y-13740000D01*
%TO.C,R4*%
X13472000Y-16280000D02*
X20012000Y-16280000D01*
X13472000Y-18690000D02*
X13472000Y-19020000D01*
X20012000Y-19020000D02*
X20012000Y-18690000D01*
X13472000Y-19020000D02*
X20012000Y-19020000D01*
X13472000Y-16610000D02*
X13472000Y-16280000D01*
X20012000Y-16280000D02*
X20012000Y-16610000D01*
%TO.C,R14*%
X6682000Y-20920000D02*
X6352000Y-20920000D01*
X3942000Y-14380000D02*
X3942000Y-20920000D01*
X4272000Y-14380000D02*
X3942000Y-14380000D01*
X6682000Y-14380000D02*
X6682000Y-20920000D01*
X6352000Y-14380000D02*
X6682000Y-14380000D01*
X3942000Y-20920000D02*
X4272000Y-20920000D01*
%TO.C,J4*%
X39986000Y-16175000D02*
X39986000Y-14435000D01*
X38246000Y-16175000D02*
X39986000Y-16175000D01*
X39986000Y-24675000D02*
X29746000Y-24675000D01*
X39986000Y-15285000D02*
X49486000Y-15285000D01*
X39986000Y-14435000D02*
X29746000Y-14435000D01*
X49486000Y-15285000D02*
X49486000Y-23825000D01*
X49486000Y-23825000D02*
X39986000Y-23825000D01*
X38246000Y-22935000D02*
X39986000Y-22935000D01*
X38246000Y-24675000D02*
X38246000Y-22935000D01*
X29746000Y-24675000D02*
X29746000Y-20255000D01*
X29746000Y-18855000D02*
X29746000Y-14435000D01*
X38246000Y-14435000D02*
X38246000Y-16175000D01*
X39986000Y-24675000D02*
X39986000Y-22935000D01*
%TO.C,C6*%
X28457000Y-18934000D02*
X28457000Y-17676000D01*
X26617000Y-18934000D02*
X26617000Y-17676000D01*
D10*
%TO.C,SW2*%
X35270000Y-50525000D02*
X35270000Y-41925000D01*
X39870000Y-44225000D02*
X39870000Y-41925000D01*
X39870000Y-50525000D02*
X39870000Y-48325000D01*
D13*
%TO.C,J1*%
X-7046662Y-30981000D02*
X-7479675Y-30731000D01*
X-20281000Y-9706000D02*
X-7941000Y-9706000D01*
X-7479675Y-30731000D02*
X-7046662Y-30481000D01*
X-7046662Y-30481000D02*
X-7046662Y-30981000D01*
X-7941000Y-9706000D02*
X-7941000Y-40676000D01*
X-7941000Y-40676000D02*
X-20281000Y-40676000D01*
%TO.C,J5*%
X39986000Y565000D02*
X29746000Y565000D01*
X39986000Y-285000D02*
X49486000Y-285000D01*
X49486000Y-8825000D02*
X39986000Y-8825000D01*
X39986000Y-9675000D02*
X39986000Y-7935000D01*
X39986000Y-1175000D02*
X39986000Y565000D01*
X38246000Y-7935000D02*
X39986000Y-7935000D01*
X39986000Y-9675000D02*
X29746000Y-9675000D01*
X49486000Y-285000D02*
X49486000Y-8825000D01*
X38246000Y-1175000D02*
X39986000Y-1175000D01*
X38246000Y-9675000D02*
X38246000Y-7935000D01*
X29746000Y-3855000D02*
X29746000Y565000D01*
X38246000Y565000D02*
X38246000Y-1175000D01*
X29746000Y-9675000D02*
X29746000Y-5255000D01*
%TO.C,R1*%
X13472000Y-11070000D02*
X13472000Y-11400000D01*
X20012000Y-8660000D02*
X20012000Y-8990000D01*
X20012000Y-11400000D02*
X20012000Y-11070000D01*
X13472000Y-11400000D02*
X20012000Y-11400000D01*
X13472000Y-8660000D02*
X20012000Y-8660000D01*
X13472000Y-8990000D02*
X13472000Y-8660000D01*
%TO.C,R17*%
X3942000Y-27080000D02*
X3942000Y-33620000D01*
X3942000Y-33620000D02*
X4272000Y-33620000D01*
X4272000Y-27080000D02*
X3942000Y-27080000D01*
X6682000Y-33620000D02*
X6352000Y-33620000D01*
X6682000Y-27080000D02*
X6682000Y-33620000D01*
X6352000Y-27080000D02*
X6682000Y-27080000D01*
%TO.C,SW1*%
X-8538000Y-50600000D02*
X-8538000Y-52090000D01*
X-17898000Y-52090000D02*
X-8538000Y-52090000D01*
X-8538000Y-46710000D02*
X-8538000Y-48200000D01*
X-17898000Y-46710000D02*
X-17898000Y-52090000D01*
X-8538000Y-46710000D02*
X-17898000Y-46710000D01*
%TO.C,D1*%
X-13293000Y-45245000D02*
X-13137000Y-45245000D01*
X-15609000Y-45245000D02*
X-15453000Y-45245000D01*
X-13293000Y-44725961D02*
G75*
G03*
X-13293163Y-42643870I-1080000J1040961D01*
G01*
X-13137484Y-45245000D02*
G75*
G03*
X-13294392Y-42012665I-1235516J1560000D01*
G01*
X-15452837Y-42643870D02*
G75*
G03*
X-15453000Y-44725961I1079837J-1041130D01*
G01*
X-15451608Y-42012665D02*
G75*
G03*
X-15608516Y-45245000I1078608J-1672335D01*
G01*
%TO.C,C8*%
X12901000Y144000D02*
X12901000Y-1114000D01*
X14741000Y144000D02*
X14741000Y-1114000D01*
%TO.C,Q2*%
X7907000Y1295000D02*
X7907000Y-2305000D01*
X12357001Y-505000D02*
G75*
G03*
X7918522Y1333478I-2600001J0D01*
G01*
X7918522Y-2343478D02*
G75*
G03*
X12357000Y-505000I1838478J1838478D01*
G01*
%TO.C,FB1*%
X11452000Y-41565000D02*
X1712000Y-41565000D01*
X11692000Y-43685000D02*
X11452000Y-43685000D01*
X11452000Y-45805000D02*
X11452000Y-41565000D01*
X1712000Y-45805000D02*
X11452000Y-45805000D01*
X1712000Y-41565000D02*
X1712000Y-45805000D01*
X1472000Y-43685000D02*
X1712000Y-43685000D01*
%TO.C,C4*%
X21082000Y-51786000D02*
X18752000Y-51786000D01*
X22919000Y-49946000D02*
X20957000Y-49946000D01*
X18877000Y-49105000D02*
X16706000Y-49105000D01*
X23084000Y-49385000D02*
X20957000Y-49385000D01*
X22222000Y-51026000D02*
X20957000Y-51026000D01*
X23139000Y-48985000D02*
X20957000Y-48985000D01*
X22964000Y-49826000D02*
X20957000Y-49826000D01*
X18877000Y-50986000D02*
X17574000Y-50986000D01*
X18877000Y-50586000D02*
X17253000Y-50586000D01*
X18877000Y-49826000D02*
X16870000Y-49826000D01*
X23092000Y-49345000D02*
X20957000Y-49345000D01*
X23132000Y-49065000D02*
X20957000Y-49065000D01*
X21631000Y-51506000D02*
X18203000Y-51506000D01*
X18877000Y-50186000D02*
X17021000Y-50186000D01*
X23123000Y-49145000D02*
X20957000Y-49145000D01*
X23058000Y-49506000D02*
X20957000Y-49506000D01*
X18877000Y-49906000D02*
X16899000Y-49906000D01*
X22607000Y-50546000D02*
X20957000Y-50546000D01*
X23038000Y-49586000D02*
X20957000Y-49586000D01*
X22851000Y-50106000D02*
X20957000Y-50106000D01*
X18877000Y-49946000D02*
X16915000Y-49946000D01*
X18877000Y-49145000D02*
X16711000Y-49145000D01*
X18877000Y-49305000D02*
X16735000Y-49305000D01*
X22367000Y-50866000D02*
X20957000Y-50866000D01*
X21179000Y-51746000D02*
X18655000Y-51746000D01*
X21807000Y-51386000D02*
X18027000Y-51386000D01*
X18877000Y-50266000D02*
X17061000Y-50266000D01*
X22707000Y-50386000D02*
X20957000Y-50386000D01*
X22991000Y-49746000D02*
X20957000Y-49746000D01*
X18877000Y-50106000D02*
X16983000Y-50106000D01*
X20857000Y-51866000D02*
X18977000Y-51866000D01*
X22813000Y-50186000D02*
X20957000Y-50186000D01*
X22978000Y-49786000D02*
X20957000Y-49786000D01*
X20550000Y-51946000D02*
X19284000Y-51946000D01*
X18877000Y-50146000D02*
X17001000Y-50146000D01*
X20719000Y-51906000D02*
X19115000Y-51906000D01*
X23147000Y-48785000D02*
X16687000Y-48785000D01*
X18877000Y-50906000D02*
X17501000Y-50906000D01*
X18877000Y-50026000D02*
X16947000Y-50026000D01*
X23003000Y-49706000D02*
X20957000Y-49706000D01*
X18877000Y-49225000D02*
X16722000Y-49225000D01*
X18877000Y-49506000D02*
X16776000Y-49506000D01*
X22887000Y-50026000D02*
X20957000Y-50026000D01*
X18877000Y-49626000D02*
X16807000Y-49626000D01*
X18877000Y-50386000D02*
X17127000Y-50386000D01*
X18877000Y-50666000D02*
X17310000Y-50666000D01*
X22659000Y-50466000D02*
X20957000Y-50466000D01*
X22465000Y-50746000D02*
X20957000Y-50746000D01*
X21961000Y-51266000D02*
X17873000Y-51266000D01*
X18877000Y-50546000D02*
X17227000Y-50546000D01*
X22903000Y-49986000D02*
X20957000Y-49986000D01*
X22729000Y-50346000D02*
X20957000Y-50346000D01*
X21912000Y-51306000D02*
X17922000Y-51306000D01*
X23099000Y-49305000D02*
X20957000Y-49305000D01*
X18877000Y-50866000D02*
X17467000Y-50866000D01*
X23067000Y-49466000D02*
X20957000Y-49466000D01*
X18877000Y-49786000D02*
X16856000Y-49786000D01*
X18877000Y-49466000D02*
X16767000Y-49466000D01*
X22950000Y-49866000D02*
X20957000Y-49866000D01*
X22524000Y-50666000D02*
X20957000Y-50666000D01*
X18877000Y-49546000D02*
X16786000Y-49546000D01*
X23048000Y-49546000D02*
X20957000Y-49546000D01*
X22141000Y-51106000D02*
X17693000Y-51106000D01*
X22099000Y-51146000D02*
X17735000Y-51146000D01*
X18877000Y-50506000D02*
X17201000Y-50506000D01*
X22333000Y-50906000D02*
X20957000Y-50906000D01*
X22495000Y-50706000D02*
X20957000Y-50706000D01*
X18877000Y-49185000D02*
X16716000Y-49185000D01*
X23106000Y-49265000D02*
X20957000Y-49265000D01*
X18877000Y-50226000D02*
X17041000Y-50226000D01*
X23015000Y-49666000D02*
X20957000Y-49666000D01*
X18877000Y-49065000D02*
X16702000Y-49065000D01*
X23141000Y-48945000D02*
X16693000Y-48945000D01*
X22793000Y-50226000D02*
X20957000Y-50226000D01*
X20319000Y-51986000D02*
X19515000Y-51986000D01*
X18877000Y-49385000D02*
X16750000Y-49385000D01*
X22071000Y-45559759D02*
X21441000Y-45559759D01*
X23147000Y-48745000D02*
X16687000Y-48745000D01*
X22751000Y-50306000D02*
X20957000Y-50306000D01*
X18877000Y-50306000D02*
X17083000Y-50306000D01*
X23076000Y-49425000D02*
X20957000Y-49425000D01*
X23118000Y-49185000D02*
X20957000Y-49185000D01*
X21267000Y-51706000D02*
X18567000Y-51706000D01*
X23145000Y-48865000D02*
X16689000Y-48865000D01*
X22433000Y-50786000D02*
X20957000Y-50786000D01*
X18877000Y-49265000D02*
X16728000Y-49265000D01*
X23128000Y-49105000D02*
X20957000Y-49105000D01*
X18877000Y-50466000D02*
X17175000Y-50466000D01*
X18877000Y-50626000D02*
X17281000Y-50626000D01*
X18877000Y-49666000D02*
X16819000Y-49666000D01*
X18877000Y-50746000D02*
X17369000Y-50746000D01*
X22182000Y-51066000D02*
X17652000Y-51066000D01*
X21693000Y-51466000D02*
X18141000Y-51466000D01*
X18877000Y-49586000D02*
X16796000Y-49586000D01*
X18877000Y-49746000D02*
X16843000Y-49746000D01*
X18877000Y-49866000D02*
X16884000Y-49866000D01*
X18877000Y-50786000D02*
X17401000Y-50786000D01*
X21349000Y-51666000D02*
X18485000Y-51666000D01*
X22054000Y-51186000D02*
X17780000Y-51186000D01*
X21861000Y-51346000D02*
X17973000Y-51346000D01*
X21426000Y-51626000D02*
X18408000Y-51626000D01*
X22401000Y-50826000D02*
X20957000Y-50826000D01*
X22935000Y-49906000D02*
X20957000Y-49906000D01*
X18877000Y-49706000D02*
X16831000Y-49706000D01*
X18877000Y-50946000D02*
X17537000Y-50946000D01*
X22633000Y-50506000D02*
X20957000Y-50506000D01*
X18877000Y-48985000D02*
X16695000Y-48985000D01*
X18877000Y-49425000D02*
X16758000Y-49425000D01*
X22297000Y-50946000D02*
X20957000Y-50946000D01*
X22773000Y-50266000D02*
X20957000Y-50266000D01*
X18877000Y-50706000D02*
X17339000Y-50706000D01*
X23135000Y-49025000D02*
X20957000Y-49025000D01*
X22260000Y-50986000D02*
X20957000Y-50986000D01*
X21498000Y-51586000D02*
X18336000Y-51586000D01*
X22683000Y-50426000D02*
X20957000Y-50426000D01*
X18877000Y-49345000D02*
X16742000Y-49345000D01*
X23147000Y-48825000D02*
X16687000Y-48825000D01*
X23144000Y-48905000D02*
X16690000Y-48905000D01*
X20976000Y-51826000D02*
X18858000Y-51826000D01*
X22869000Y-50066000D02*
X20957000Y-50066000D01*
X22553000Y-50626000D02*
X20957000Y-50626000D01*
X23112000Y-49225000D02*
X20957000Y-49225000D01*
X23027000Y-49626000D02*
X20957000Y-49626000D01*
X21751000Y-51426000D02*
X18083000Y-51426000D01*
X18877000Y-50426000D02*
X17151000Y-50426000D01*
X18877000Y-49025000D02*
X16699000Y-49025000D01*
X18877000Y-49986000D02*
X16931000Y-49986000D01*
X21567000Y-51546000D02*
X18267000Y-51546000D01*
X18877000Y-50826000D02*
X17433000Y-50826000D01*
X22833000Y-50146000D02*
X20957000Y-50146000D01*
X18877000Y-50346000D02*
X17105000Y-50346000D01*
X18877000Y-50066000D02*
X16965000Y-50066000D01*
X22581000Y-50586000D02*
X20957000Y-50586000D01*
X21756000Y-45244759D02*
X21756000Y-45874759D01*
X18877000Y-51026000D02*
X17612000Y-51026000D01*
X22009000Y-51226000D02*
X17825000Y-51226000D01*
X23187000Y-48745000D02*
G75*
G03*
X23187000Y-48745000I-3270000J0D01*
G01*
%TO.C,C1*%
X15802000Y-47280000D02*
X15802000Y-47345000D01*
X12562000Y-45105000D02*
X15802000Y-45105000D01*
X15802000Y-45105000D02*
X15802000Y-45170000D01*
X12562000Y-47345000D02*
X15802000Y-47345000D01*
X12562000Y-45105000D02*
X12562000Y-45170000D01*
X12562000Y-47280000D02*
X12562000Y-47345000D01*
%TO.C,RV1*%
X22422000Y-402000D02*
X22422000Y-3941000D01*
X25823000Y1100000D02*
X25823000Y-3941000D01*
X22422000Y-3941000D02*
X18682000Y-3941000D01*
X21626000Y1100000D02*
X19477000Y1100000D01*
X18682000Y-402000D02*
X18682000Y-3941000D01*
X15282000Y1100000D02*
X15282000Y-3941000D01*
X25823000Y1100000D02*
X24478000Y1100000D01*
X21626000Y1100000D02*
X19477000Y1100000D01*
X25823000Y-3941000D02*
X15282000Y-3941000D01*
X16627000Y1100000D02*
X15282000Y1100000D01*
%TO.C,R16*%
X20012000Y-7260000D02*
X20012000Y-7590000D01*
X13472000Y-4850000D02*
X13472000Y-5180000D01*
X20012000Y-5180000D02*
X20012000Y-4850000D01*
X20012000Y-4850000D02*
X13472000Y-4850000D01*
X13472000Y-7590000D02*
X13472000Y-7260000D01*
X20012000Y-7590000D02*
X13472000Y-7590000D01*
%TO.C,R15*%
X-10658000Y-44725000D02*
X-10658000Y-45055000D01*
X-10658000Y-42645000D02*
X-10658000Y-42315000D01*
X-4118000Y-42315000D02*
X-4118000Y-42645000D01*
X-4118000Y-45055000D02*
X-4118000Y-44725000D01*
X-10658000Y-42315000D02*
X-4118000Y-42315000D01*
X-10658000Y-45055000D02*
X-4118000Y-45055000D01*
%TO.C,C3*%
X1132000Y-8610000D02*
X1132000Y-8545000D01*
X4372000Y-8610000D02*
X4372000Y-8545000D01*
X4372000Y-6435000D02*
X4372000Y-6370000D01*
X4372000Y-6370000D02*
X1132000Y-6370000D01*
X1132000Y-6435000D02*
X1132000Y-6370000D01*
X4372000Y-8610000D02*
X1132000Y-8610000D01*
%TO.C,J2*%
X-6234000Y-7645000D02*
X-8134000Y-7645000D01*
X-20934000Y-7645000D02*
X-20934000Y1555000D01*
X-20934000Y1555000D02*
X-6234000Y1555000D01*
X-6234000Y1555000D02*
X-6234000Y-1045000D01*
X-12134000Y-7645000D02*
X-20934000Y-7645000D01*
X-7084000Y1755000D02*
X-6034000Y1755000D01*
X-6034000Y705000D02*
X-6034000Y1755000D01*
X-6234000Y-4945000D02*
X-6234000Y-7645000D01*
%TO.C,R12*%
X13472000Y-39010000D02*
X13472000Y-39340000D01*
X13472000Y-39340000D02*
X20012000Y-39340000D01*
X13472000Y-36600000D02*
X20012000Y-36600000D01*
X13472000Y-36930000D02*
X13472000Y-36600000D01*
X20012000Y-39340000D02*
X20012000Y-39010000D01*
X20012000Y-36600000D02*
X20012000Y-36930000D01*
%TO.C,R13*%
X13472000Y-41880000D02*
X20012000Y-41880000D01*
X20012000Y-41880000D02*
X20012000Y-41550000D01*
X13472000Y-39470000D02*
X13472000Y-39140000D01*
X13472000Y-41550000D02*
X13472000Y-41880000D01*
X13472000Y-39140000D02*
X20012000Y-39140000D01*
X20012000Y-39140000D02*
X20012000Y-39470000D01*
%TO.C,Q1*%
X-1093000Y-2305000D02*
X-1093000Y1295000D01*
X-1104522Y1333478D02*
G75*
G03*
X-5543000Y-505000I-1838478J-1838478D01*
G01*
X-5543001Y-505000D02*
G75*
G03*
X-1104522Y-2343478I2600001J0D01*
G01*
%TO.C,U1*%
X11132000Y-51885000D02*
X14732000Y-51885000D01*
X12932000Y-47434999D02*
G75*
G03*
X11093522Y-51873478I0J-2600001D01*
G01*
X14770478Y-51873478D02*
G75*
G03*
X12932000Y-47435000I-1838478J1838478D01*
G01*
%TO.C,J3*%
X39986000Y-39675000D02*
X29746000Y-39675000D01*
X38246000Y-37935000D02*
X39986000Y-37935000D01*
X29746000Y-39675000D02*
X29746000Y-35255000D01*
X49486000Y-38825000D02*
X39986000Y-38825000D01*
X39986000Y-30285000D02*
X49486000Y-30285000D01*
X38246000Y-31175000D02*
X39986000Y-31175000D01*
X38246000Y-39675000D02*
X38246000Y-37935000D01*
X39986000Y-31175000D02*
X39986000Y-29435000D01*
X39986000Y-29435000D02*
X29746000Y-29435000D01*
X29746000Y-33855000D02*
X29746000Y-29435000D01*
X49486000Y-30285000D02*
X49486000Y-38825000D01*
X39986000Y-39675000D02*
X39986000Y-37935000D01*
X38246000Y-29435000D02*
X38246000Y-31175000D01*
%TO.C,C7*%
X28457000Y-3934000D02*
X28457000Y-2676000D01*
X26617000Y-3934000D02*
X26617000Y-2676000D01*
%TO.C,U2*%
X10562000Y-8640000D02*
X62000Y-8640000D01*
X62000Y-39360000D02*
X10562000Y-39360000D01*
X62000Y-8640000D02*
X62000Y-39360000D01*
X7562000Y-8700000D02*
X6312000Y-8700000D01*
X7562000Y-39300000D02*
X7562000Y-8700000D01*
X3062000Y-8700000D02*
X3062000Y-39300000D01*
X10562000Y-39360000D02*
X10562000Y-8640000D01*
X4312000Y-8700000D02*
X3062000Y-8700000D01*
X3062000Y-39300000D02*
X7562000Y-39300000D01*
X4312000Y-8700000D02*
G75*
G03*
X6312000Y-8700000I1000000J0D01*
G01*
%TD*%
M02*
