%TF.GenerationSoftware,KiCad,Pcbnew,(6.0.11)*%
%TF.CreationDate,2023-07-10T01:10:07-07:00*%
%TF.ProjectId,cga-ypbpr-left,6367612d-7970-4627-9072-2d6c6566742e,rev?*%
%TF.SameCoordinates,PX2990618PY4bd2668*%
%TF.FileFunction,Profile,NP*%
%FSLAX46Y46*%
G04 Gerber Fmt 4.6, Leading zero omitted, Abs format (unit mm)*
G04 Created by KiCad (PCBNEW (6.0.11)) date 2023-07-10 01:10:07*
%MOMM*%
%LPD*%
G01*
G04 APERTURE LIST*
%TA.AperFunction,Profile*%
%ADD10C,0.050000*%
%TD*%
G04 APERTURE END LIST*
D10*
X-13973000Y45405000D02*
X43417000Y45405000D01*
X43417000Y23405000D02*
X-13973000Y23405000D01*
X-11833000Y29805000D02*
X-11833000Y40205000D01*
X37827000Y36196300D02*
X40417000Y36196300D01*
X37827000Y36196300D02*
G75*
G03*
X40417000Y36196300I1295000J-2119300D01*
G01*
X30138000Y29405000D02*
X-312000Y29405000D01*
X44417000Y44405000D02*
G75*
G03*
X43417000Y45405000I-1000000J0D01*
G01*
X-11433000Y40605000D02*
G75*
G03*
X-11833000Y40205000I0J-400000D01*
G01*
X35007000Y34077000D02*
G75*
G03*
X35007000Y34077000I-1600000J0D01*
G01*
X43417000Y23405000D02*
G75*
G03*
X44417000Y24405000I0J1000000D01*
G01*
X-11433000Y40605000D02*
X-3033000Y40605000D01*
X-612000Y29705000D02*
G75*
G03*
X-312000Y29405000I300000J0D01*
G01*
X-612000Y29705000D02*
X-612000Y41355000D01*
X30438000Y41355000D02*
X30438000Y29705000D01*
X30438000Y41355000D02*
G75*
G03*
X29638000Y42155000I-800000J0D01*
G01*
X30138000Y29405000D02*
G75*
G03*
X30438000Y29705000I0J300000D01*
G01*
X-2633000Y40205000D02*
X-2633000Y29805000D01*
X-14973000Y44405000D02*
X-14973000Y24405000D01*
X-3033000Y29405000D02*
X-11433000Y29405000D01*
X-11833000Y29805000D02*
G75*
G03*
X-11433000Y29405000I400000J0D01*
G01*
X-14973000Y24405000D02*
G75*
G03*
X-13973000Y23405000I1000000J0D01*
G01*
X188000Y42155000D02*
X29638000Y42155000D01*
X-13973000Y45405000D02*
G75*
G03*
X-14973000Y44405000I0J-1000000D01*
G01*
X188000Y42155000D02*
G75*
G03*
X-612000Y41355000I0J-800000D01*
G01*
X-2633000Y40205000D02*
G75*
G03*
X-3033000Y40605000I-400000J0D01*
G01*
X-3033000Y29405000D02*
G75*
G03*
X-2633000Y29805000I0J400000D01*
G01*
X44417000Y44405000D02*
X44417000Y24405000D01*
M02*
